<?xml version="1.0" encoding="UTF-8"?>
<!DOCTYPE svg PUBLIC "-//W3C//DTD SVG 1.1//EN" "http://www.w3.org/Graphics/SVG/1.1/DTD/svg11.dtd">
<svg xmlns="http://www.w3.org/2000/svg" version="1.1" width="64px" height="64px" style="shape-rendering:geometricPrecision; text-rendering:geometricPrecision; image-rendering:optimizeQuality; fill-rule:evenodd; clip-rule:evenodd" xmlns:xlink="http://www.w3.org/1999/xlink">
<g><path style="opacity:0.923" fill="#24dd20" d="M 53.5,15.5 C 50.7496,9.0311 52.7496,6.5311 59.5,8C 60.0968,9.06171 60.4302,10.2284 60.5,11.5C 58.761,14.1101 57.761,17.1101 57.5,20.5C 59.3171,26.3048 59.8171,32.3048 59,38.5C 57.4157,39.8613 55.5824,40.528 53.5,40.5C 53.5,45.8333 53.5,51.1667 53.5,56.5C 38.8333,56.5 24.1667,56.5 9.5,56.5C 9.5,51.1667 9.5,45.8333 9.5,40.5C 7.41764,40.528 5.5843,39.8613 4,38.5C 3.18287,32.3048 3.68287,26.3048 5.5,20.5C 5.23904,17.1101 4.23904,14.1101 2.5,11.5C 2.56983,10.2284 2.90316,9.06171 3.5,8C 10.2504,6.5311 12.2504,9.0311 9.5,15.5C 13.5,15.5 17.5,15.5 21.5,15.5C 22.7126,12.5919 23.8793,9.59191 25,6.5C 29.0785,5.37052 33.2452,5.20385 37.5,6C 38.7093,9.32426 40.0426,12.4909 41.5,15.5C 45.5,15.5 49.5,15.5 53.5,15.5 Z M 28.5,7.5 C 30.5273,7.33788 32.5273,7.50454 34.5,8C 35.3366,9.01127 35.67,10.1779 35.5,11.5C 32.8333,11.5 30.1667,11.5 27.5,11.5C 27.4326,10.0413 27.7659,8.70792 28.5,7.5 Z M 5.5,10.5 C 7.33702,10.6395 7.67036,11.3061 6.5,12.5C 5.70245,12.0431 5.36912,11.3764 5.5,10.5 Z M 55.5,10.5 C 57.337,10.6395 57.6704,11.3061 56.5,12.5C 55.7025,12.0431 55.3691,11.3764 55.5,10.5 Z M 24.5,13.5 C 29.2137,13.1734 33.8804,13.5067 38.5,14.5C 36.1667,14.8333 33.8333,15.1667 31.5,15.5C 28.7305,15.4714 26.3972,14.8048 24.5,13.5 Z M 9.5,15.5 C 9.81741,18.5719 9.48408,21.5719 8.5,24.5C 8.16667,23 7.83333,21.5 7.5,20C 7.56865,18.0145 8.23532,16.5145 9.5,15.5 Z M 53.5,15.5 C 54.7647,16.5145 55.4313,18.0145 55.5,20C 55.1667,21.5 54.8333,23 54.5,24.5C 53.5159,21.5719 53.1826,18.5719 53.5,15.5 Z M 12.5,17.5 C 25.1711,17.3334 37.8377,17.5001 50.5,18C 51.6541,29.7573 51.8207,41.5907 51,53.5C 38.2421,54.6551 25.4088,54.8217 12.5,54C 11.1762,41.8334 11.1762,29.6667 12.5,17.5 Z M 7.5,27.5 C 8.77725,28.6936 9.44392,30.3603 9.5,32.5C 8.74829,38.8163 7.41495,38.8163 5.5,32.5C 5.43655,30.4861 6.10321,28.8194 7.5,27.5 Z M 53.5,27.5 C 57.254,28.8276 58.4207,31.4942 57,35.5C 56.3109,36.3567 55.4776,37.0233 54.5,37.5C 53.513,34.2317 53.1796,30.8984 53.5,27.5 Z M 23.5,39.5 C 28.8333,39.5 34.1667,39.5 39.5,39.5C 39.5,40.8333 39.5,42.1667 39.5,43.5C 34.1667,43.5 28.8333,43.5 23.5,43.5C 23.5,42.1667 23.5,40.8333 23.5,39.5 Z"/></g>
<g><path style="opacity:0.815" fill="#25dd21" d="M 17.5,23.5 C 27.4874,22.3319 30.154,26.1653 25.5,35C 15.4338,36.4671 12.7671,32.6338 17.5,23.5 Z"/></g>
<g><path style="opacity:0.815" fill="#25dd21" d="M 37.5,23.5 C 47.4874,22.3319 50.154,26.1653 45.5,35C 35.4338,36.4671 32.7671,32.6338 37.5,23.5 Z"/></g>
<g><path style="opacity:0.878" fill="#24de20" d="M 19.5,27.5 C 20.8333,27.5 22.1667,27.5 23.5,27.5C 23.5,28.8333 23.5,30.1667 23.5,31.5C 22.1667,31.5 20.8333,31.5 19.5,31.5C 19.5,30.1667 19.5,28.8333 19.5,27.5 Z"/></g>
<g><path style="opacity:0.878" fill="#24de20" d="M 39.5,27.5 C 40.8333,27.5 42.1667,27.5 43.5,27.5C 43.5,28.8333 43.5,30.1667 43.5,31.5C 42.1667,31.5 40.8333,31.5 39.5,31.5C 39.5,30.1667 39.5,28.8333 39.5,27.5 Z"/></g>
<g><path style="opacity:0.983" fill="#25de20" d="M 21.5,37.5 C 28.1667,37.5 34.8333,37.5 41.5,37.5C 41.5,40.1667 41.5,42.8333 41.5,45.5C 34.8333,45.5 28.1667,45.5 21.5,45.5C 21.5,42.8333 21.5,40.1667 21.5,37.5 Z M 23.5,39.5 C 23.5,40.8333 23.5,42.1667 23.5,43.5C 28.8333,43.5 34.1667,43.5 39.5,43.5C 39.5,42.1667 39.5,40.8333 39.5,39.5C 34.1667,39.5 28.8333,39.5 23.5,39.5 Z"/></g>
<g><path style="opacity:0.883" fill="#24de20" d="M 15.5,48.5 C 16.5862,48.62 17.2528,49.2867 17.5,50.5C 17.1667,51.1667 16.8333,51.8333 16.5,52.5C 15.5713,51.3112 15.238,49.9778 15.5,48.5 Z"/></g>
<g><path style="opacity:0.883" fill="#24de20" d="M 20.5,48.5 C 21.5862,48.62 22.2528,49.2867 22.5,50.5C 22.1667,51.1667 21.8333,51.8333 21.5,52.5C 20.5713,51.3112 20.238,49.9778 20.5,48.5 Z"/></g>
<g><path style="opacity:0.883" fill="#24de20" d="M 25.5,48.5 C 26.5862,48.62 27.2528,49.2867 27.5,50.5C 27.1667,51.1667 26.8333,51.8333 26.5,52.5C 25.5713,51.3112 25.238,49.9778 25.5,48.5 Z"/></g>
<g><path style="opacity:0.883" fill="#24de20" d="M 30.5,48.5 C 31.5862,48.62 32.2528,49.2867 32.5,50.5C 32.1667,51.1667 31.8333,51.8333 31.5,52.5C 30.5713,51.3112 30.238,49.9778 30.5,48.5 Z"/></g>
<g><path style="opacity:0.883" fill="#24de20" d="M 35.5,48.5 C 36.5862,48.62 37.2528,49.2867 37.5,50.5C 37.1667,51.1667 36.8333,51.8333 36.5,52.5C 35.5713,51.3112 35.238,49.9778 35.5,48.5 Z"/></g>
<g><path style="opacity:0.883" fill="#24de20" d="M 40.5,48.5 C 41.5862,48.62 42.2528,49.2867 42.5,50.5C 42.1667,51.1667 41.8333,51.8333 41.5,52.5C 40.5713,51.3112 40.238,49.9778 40.5,48.5 Z"/></g>
<g><path style="opacity:0.883" fill="#24de20" d="M 45.5,48.5 C 46.5862,48.62 47.2528,49.2867 47.5,50.5C 47.1667,51.1667 46.8333,51.8333 46.5,52.5C 45.5713,51.3112 45.238,49.9778 45.5,48.5 Z"/></g>
</svg>
