<?xml version="1.0" encoding="UTF-8"?>
<!DOCTYPE svg PUBLIC "-//W3C//DTD SVG 1.1//EN" "http://www.w3.org/Graphics/SVG/1.1/DTD/svg11.dtd">
<svg xmlns="http://www.w3.org/2000/svg" version="1.1" width="64px" height="64px" style="shape-rendering:geometricPrecision; text-rendering:geometricPrecision; image-rendering:optimizeQuality; fill-rule:evenodd; clip-rule:evenodd" xmlns:xlink="http://www.w3.org/1999/xlink">
<g><path style="opacity:0.701" fill="#fefffe" d="M 22.5,41.5 C 26.5505,45.5471 30.2172,49.8804 33.5,54.5C 32.5628,58.2831 30.2295,59.7831 26.5,59C 17.2552,50.2587 8.58856,41.0921 0.5,31.5C 8.58856,21.9079 17.2552,12.7413 26.5,4C 31.3333,3.5 33.5,5.66667 33,10.5C 27.5,16 22,21.5 16.5,27C 31.4963,27.4999 46.4963,27.6666 61.5,27.5C 61.5,30.1667 61.5,32.8333 61.5,35.5C 46.4963,35.3334 31.4963,35.5001 16.5,36C 18.3702,38.0396 20.3702,39.8729 22.5,41.5 Z M 27.5,7.5 C 29.0281,7.51731 29.5281,8.18398 29,9.5C 23.3333,15.1667 17.6667,20.8333 12,26.5C 11.5172,27.448 11.3505,28.448 11.5,29.5C 27.5,29.5 43.5,29.5 59.5,29.5C 59.5,30.8333 59.5,32.1667 59.5,33.5C 43.5,33.5 27.5,33.5 11.5,33.5C 11.3505,34.552 11.5172,35.552 12,36.5C 18.0149,42.3479 23.8482,48.3479 29.5,54.5C 28.9984,55.521 28.3317,55.6877 27.5,55C 19.6521,47.319 11.9854,39.4857 4.5,31.5C 12.1881,23.4794 19.8548,15.4794 27.5,7.5 Z"/></g>
<g><path style="opacity:0.883" fill="#fefffe" d="M 22.5,41.5 C 22.238,40.0222 22.5713,38.6888 23.5,37.5C 23.8333,38.1667 24.1667,38.8333 24.5,39.5C 24.2528,40.7133 23.5862,41.38 22.5,41.5 Z"/></g>
<g><path style="opacity:0.883" fill="#fefffe" d="M 27.5,37.5 C 28.5862,37.62 29.2528,38.2867 29.5,39.5C 29.1667,40.1667 28.8333,40.8333 28.5,41.5C 27.5713,40.3112 27.238,38.9778 27.5,37.5 Z"/></g>
<g><path style="opacity:0.883" fill="#fefffe" d="M 32.5,37.5 C 33.5862,37.62 34.2528,38.2867 34.5,39.5C 34.1667,40.1667 33.8333,40.8333 33.5,41.5C 32.5713,40.3112 32.238,38.9778 32.5,37.5 Z"/></g>
<g><path style="opacity:0.883" fill="#fefffe" d="M 37.5,37.5 C 38.5862,37.62 39.2528,38.2867 39.5,39.5C 39.1667,40.1667 38.8333,40.8333 38.5,41.5C 37.5713,40.3112 37.238,38.9778 37.5,37.5 Z"/></g>
<g><path style="opacity:0.883" fill="#fefffe" d="M 42.5,37.5 C 43.5862,37.62 44.2528,38.2867 44.5,39.5C 44.1667,40.1667 43.8333,40.8333 43.5,41.5C 42.5713,40.3112 42.238,38.9778 42.5,37.5 Z"/></g>
<g><path style="opacity:0.883" fill="#fefffe" d="M 47.5,37.5 C 48.5862,37.62 49.2528,38.2867 49.5,39.5C 49.1667,40.1667 48.8333,40.8333 48.5,41.5C 47.5713,40.3112 47.238,38.9778 47.5,37.5 Z"/></g>
<g><path style="opacity:0.883" fill="#fefffe" d="M 52.5,37.5 C 53.5862,37.62 54.2528,38.2867 54.5,39.5C 54.1667,40.1667 53.8333,40.8333 53.5,41.5C 52.5713,40.3112 52.238,38.9778 52.5,37.5 Z"/></g>
<g><path style="opacity:0.883" fill="#fefffe" d="M 57.5,37.5 C 58.5862,37.62 59.2528,38.2867 59.5,39.5C 59.1667,40.1667 58.8333,40.8333 58.5,41.5C 57.5713,40.3112 57.238,38.9778 57.5,37.5 Z"/></g>
</svg>
