<?xml version="1.0" encoding="UTF-8"?>
<!DOCTYPE svg PUBLIC "-//W3C//DTD SVG 1.1//EN" "http://www.w3.org/Graphics/SVG/1.1/DTD/svg11.dtd">
<svg xmlns="http://www.w3.org/2000/svg" version="1.1" width="64px" height="64px" style="shape-rendering:geometricPrecision; text-rendering:geometricPrecision; image-rendering:optimizeQuality; fill-rule:evenodd; clip-rule:evenodd" xmlns:xlink="http://www.w3.org/1999/xlink">
<g><path style="opacity:0.593" fill="#23dd20" d="M 38.5,1.5 C 43.3247,1.48808 45.4914,3.82141 45,8.5C 37.3188,16.0143 29.8188,23.681 22.5,31.5C 29.8188,39.319 37.3188,46.9857 45,54.5C 45.5,59.3333 43.3333,61.5 38.5,61C 28.5892,51.5925 19.2558,41.7591 10.5,31.5C 19.4585,21.2062 28.7918,11.2062 38.5,1.5 Z M 39.5,5.5 C 41.0281,5.51731 41.5281,6.18398 41,7.5C 32.9206,15.0755 25.4206,23.0755 18.5,31.5C 25.4206,39.9245 32.9206,47.9245 41,55.5C 41.6877,56.3317 41.521,56.9984 40.5,57.5C 31.5,49.1667 22.8333,40.5 14.5,31.5C 22.8547,22.8127 31.1881,14.1461 39.5,5.5 Z"/></g>
<g><path style="opacity:0.697" fill="#24dd20" d="M 46.5,8.5 C 49.9318,8.24788 50.9318,9.58121 49.5,12.5C 47.7118,11.7174 46.7118,10.3841 46.5,8.5 Z"/></g>
<g><path style="opacity:0.627" fill="#25dd20" d="M 43.5,11.5 C 45.3841,11.7118 46.7174,12.7118 47.5,14.5C 44.5812,15.9318 43.2479,14.9318 43.5,11.5 Z"/></g>
<g><path style="opacity:0.613" fill="#24dd20" d="M 39.5,15.5 C 42.9318,15.2479 43.9318,16.5812 42.5,19.5C 40.7118,18.7174 39.7118,17.3841 39.5,15.5 Z"/></g>
<g><path style="opacity:0.664" fill="#23e01f" d="M 36.5,18.5 C 38.3841,18.7118 39.7174,19.7118 40.5,21.5C 38.4382,22.7609 36.7715,22.2609 35.5,20C 36.056,19.6174 36.3893,19.1174 36.5,18.5 Z"/></g>
<g><path style="opacity:0.698" fill="#22e21e" d="M 32.5,22.5 C 35.5,22.1667 36.8333,23.5 36.5,26.5C 33.5,26.8333 32.1667,25.5 32.5,22.5 Z"/></g>
<g><path style="opacity:0.877" fill="#27dc22" d="M 29.5,29.5 C 27.9663,27.6579 28.2997,26.3246 30.5,25.5C 33.4291,26.6486 33.9291,28.3153 32,30.5C 31.3292,29.7476 30.4959,29.4142 29.5,29.5 Z"/></g>
<g><path style="opacity:0.831" fill="#23de1f" d="M 29.5,29.5 C 29.8039,30.1499 30.1373,30.8165 30.5,31.5C 28.8333,32.8333 27.1667,32.8333 25.5,31.5C 26.3202,29.8888 27.6536,29.2222 29.5,29.5 Z"/></g>
<g><path style="opacity:0.664" fill="#28dc22" d="M 31.5,32.5 C 34.0835,34.4191 33.7502,36.0858 30.5,37.5C 29.6919,37.1924 29.0253,36.6924 28.5,36C 29.365,34.6412 30.365,33.4745 31.5,32.5 Z"/></g>
<g><path style="opacity:0.655" fill="#22e21e" d="M 33.5,36.5 C 34.5,36.5 35.5,36.5 36.5,36.5C 36.8333,39.5 35.5,40.8333 32.5,40.5C 32.4326,39.0413 32.7659,37.7079 33.5,36.5 Z"/></g>
<g><path style="opacity:0.589" fill="#22df1f" d="M 37.5,40.5 C 41.193,41.2471 41.193,42.5804 37.5,44.5C 35.2064,43.3746 35.2064,42.0412 37.5,40.5 Z"/></g>
<g><path style="opacity:0.589" fill="#24dd21" d="M 41.5,43.5 C 44.1009,44.9225 43.9342,46.2558 41,47.5C 40.5,47.1667 40,46.8333 39.5,46.5C 40.1925,45.4822 40.8592,44.4822 41.5,43.5 Z"/></g>
<g><path style="opacity:0.606" fill="#24dc21" d="M 44.5,47.5 C 48.193,48.2471 48.193,49.5804 44.5,51.5C 43.3744,50.1916 43.3744,48.8583 44.5,47.5 Z"/></g>
<g><path style="opacity:0.696" fill="#24dd20" d="M 48.5,50.5 C 51.1009,51.9225 50.9342,53.2558 48,54.5C 47.5,54.1667 47,53.8333 46.5,53.5C 47.1925,52.4822 47.8592,51.4822 48.5,50.5 Z"/></g>
</svg>
