<?xml version="1.0" encoding="UTF-8"?>
<!DOCTYPE svg PUBLIC "-//W3C//DTD SVG 1.1//EN" "http://www.w3.org/Graphics/SVG/1.1/DTD/svg11.dtd">
<svg xmlns="http://www.w3.org/2000/svg" version="1.1" width="64px" height="64px" style="shape-rendering:geometricPrecision; text-rendering:geometricPrecision; image-rendering:optimizeQuality; fill-rule:evenodd; clip-rule:evenodd" xmlns:xlink="http://www.w3.org/1999/xlink">
<g><path style="opacity:0.75" fill="#fefffe" d="M 58.5,2.5 C 59.5,2.5 60.5,2.5 61.5,2.5C 60.9087,5.6136 59.242,8.1136 56.5,10C 57.3366,11.0113 57.67,12.1779 57.5,13.5C 58.8333,13.5 60.1667,13.5 61.5,13.5C 61.5,27.5 61.5,41.5 61.5,55.5C 44.4967,55.3334 27.4967,55.5001 10.5,56C 8.13105,59.2258 5.13105,61.3924 1.5,62.5C 1.74381,59.7374 3.07714,57.5707 5.5,56C 4.20677,55.51 2.87344,55.3433 1.5,55.5C 1.5,41.5 1.5,27.5 1.5,13.5C 3.5,13.5 5.5,13.5 7.5,13.5C 7.5,12.1667 7.5,10.8333 7.5,9.5C 10.8333,9.5 14.1667,9.5 17.5,9.5C 17.5,10.8333 17.5,12.1667 17.5,13.5C 19.5273,13.6621 21.5273,13.4955 23.5,13C 26.3128,8.01911 30.6461,6.18578 36.5,7.5C 39.5,7.66667 42.5,7.83333 45.5,8C 47.0488,9.21398 48.2155,10.714 49,12.5C 52.3709,9.29747 55.5375,5.96414 58.5,2.5 Z M 27.5,21.5 C 22.1637,25.1922 20.497,30.1922 22.5,36.5C 24.0181,34.3792 25.0181,32.0459 25.5,29.5C 25.2267,31.451 25.8934,32.951 27.5,34C 24.2975,37.3709 20.9641,40.5375 17.5,43.5C 14.7044,46.7974 11.7044,49.9641 8.5,53C 6.88762,53.7203 5.38762,53.5536 4,52.5C 3.33333,40.5 3.33333,28.5 4,16.5C 11.443,15.8486 18.943,15.1819 26.5,14.5C 27.4909,12.6769 28.8243,11.1769 30.5,10C 34.5,9.33333 38.5,9.33333 42.5,10C 44.1757,11.1769 45.5091,12.6769 46.5,14.5C 44.517,16.9837 42.3504,19.3171 40,21.5C 38.5421,17.9024 36.5421,17.2357 34,19.5C 33.0497,18.9777 32.2164,18.311 31.5,17.5C 30.6761,19.4206 29.3428,20.754 27.5,21.5 Z M 9.5,11.5 C 11.604,11.2011 13.604,11.5344 15.5,12.5C 14.5,12.8333 13.5,13.1667 12.5,13.5C 10.9704,13.3601 9.97041,12.6935 9.5,11.5 Z M 24.5,42.5 C 25.164,45.7128 27.164,47.8794 30.5,49C 46.6667,51.5 53.5,44.6667 51,28.5C 49.8794,25.164 47.7128,23.164 44.5,22.5C 45.209,21.596 46.209,21.2627 47.5,21.5C 47.393,19.0968 48.393,17.2635 50.5,16C 53.146,15.5026 55.8127,15.3359 58.5,15.5C 58.5,28.1667 58.5,40.8333 58.5,53.5C 43.4963,53.6666 28.4963,53.4999 13.5,53C 17.0357,49.2961 20.7024,45.7961 24.5,42.5 Z M 31.5,23.5 C 33.6282,22.3709 35.9615,22.2042 38.5,23C 37.9747,23.6924 37.3081,24.1924 36.5,24.5C 34.9291,23.6906 33.2624,23.3573 31.5,23.5 Z M 44.5,22.5 C 44.5,23.5 44.5,24.5 44.5,25.5C 43.5,25.5 42.5,25.5 41.5,25.5C 42.1667,24.1667 43.1667,23.1667 44.5,22.5 Z M 41.5,25.5 C 41.2837,27.6807 42.117,29.3474 44,30.5C 46.1084,37.5342 43.6084,41.5342 36.5,42.5C 33.3123,41.9582 30.3123,40.9582 27.5,39.5C 31.8333,34.5 36.5,29.8333 41.5,25.5 Z M 32.5,26.5 C 33.2389,26.369 33.9056,26.5357 34.5,27C 32.6667,28.8333 30.8333,30.6667 29,32.5C 28.3333,31.8333 28.3333,31.1667 29,30.5C 30.3756,29.2949 31.5423,27.9616 32.5,26.5 Z M 27.5,39.5 C 27.5,40.5 27.5,41.5 27.5,42.5C 26.5,42.5 25.5,42.5 24.5,42.5C 25.1667,41.1667 26.1667,40.1667 27.5,39.5 Z"/></g>
<g><path style="opacity:0.963" fill="#fefffe" d="M 29.5,11.5 C 34.2137,11.1734 38.8804,11.5067 43.5,12.5C 41.1667,12.8333 38.8333,13.1667 36.5,13.5C 33.7305,13.4714 31.3972,12.8048 29.5,11.5 Z"/></g>
<g><path style="opacity:0.885" fill="#fefffe" d="M 5.5,17.5 C 6.58617,17.62 7.25284,18.2867 7.5,19.5C 7.16667,20.1667 6.83333,20.8333 6.5,21.5C 5.57131,20.3112 5.23798,18.9778 5.5,17.5 Z"/></g>
<g><path style="opacity:0.885" fill="#fefffe" d="M 10.5,17.5 C 11.5862,17.62 12.2528,18.2867 12.5,19.5C 12.1667,20.1667 11.8333,20.8333 11.5,21.5C 10.5713,20.3112 10.238,18.9778 10.5,17.5 Z"/></g>
<g><path style="opacity:0.885" fill="#fefffe" d="M 15.5,17.5 C 16.5862,17.62 17.2528,18.2867 17.5,19.5C 17.1667,20.1667 16.8333,20.8333 16.5,21.5C 15.5713,20.3112 15.238,18.9778 15.5,17.5 Z"/></g>
<g><path style="opacity:0.885" fill="#fefffe" d="M 20.5,17.5 C 21.5862,17.62 22.2528,18.2867 22.5,19.5C 22.1667,20.1667 21.8333,20.8333 21.5,21.5C 20.5713,20.3112 20.238,18.9778 20.5,17.5 Z"/></g>
<g><path style="opacity:0.881" fill="#fefffe" d="M 27.5,21.5 C 26.4138,21.38 25.7472,20.7133 25.5,19.5C 25.8333,18.8333 26.1667,18.1667 26.5,17.5C 27.4287,18.6888 27.762,20.0222 27.5,21.5 Z"/></g>
<g><path style="opacity:0.885" fill="#fefffe" d="M 50.5,17.5 C 51.5862,17.62 52.2528,18.2867 52.5,19.5C 52.1667,20.1667 51.8333,20.8333 51.5,21.5C 50.5713,20.3112 50.238,18.9778 50.5,17.5 Z"/></g>
<g><path style="opacity:0.885" fill="#fefffe" d="M 55.5,17.5 C 56.5862,17.62 57.2528,18.2867 57.5,19.5C 57.1667,20.1667 56.8333,20.8333 56.5,21.5C 55.5713,20.3112 55.238,18.9778 55.5,17.5 Z"/></g>
<g><path style="opacity:0.616" fill="#fefffe" d="M 44.5,22.5 C 47.7128,23.164 49.8794,25.164 51,28.5C 53.5,44.6667 46.6667,51.5 30.5,49C 27.164,47.8794 25.164,45.7128 24.5,42.5C 25.5,42.5 26.5,42.5 27.5,42.5C 27.5,41.5 27.5,40.5 27.5,39.5C 30.3123,40.9582 33.3123,41.9582 36.5,42.5C 43.6084,41.5342 46.1084,37.5342 44,30.5C 42.117,29.3474 41.2837,27.6807 41.5,25.5C 42.5,25.5 43.5,25.5 44.5,25.5C 44.5,24.5 44.5,23.5 44.5,22.5 Z"/></g>
<g><path style="opacity:0.979" fill="#fefffe" d="M 17.5,43.5 C 16.1803,40.572 15.5136,37.2386 15.5,33.5C 15.8333,30.1667 16.1667,26.8333 16.5,23.5C 17.4967,30.1335 17.83,36.8002 17.5,43.5 Z"/></g>
</svg>
