<?xml version="1.0" encoding="UTF-8"?>
<!DOCTYPE svg PUBLIC "-//W3C//DTD SVG 1.1//EN" "http://www.w3.org/Graphics/SVG/1.1/DTD/svg11.dtd">
<svg xmlns="http://www.w3.org/2000/svg" version="1.1" width="64px" height="64px" style="shape-rendering:geometricPrecision; text-rendering:geometricPrecision; image-rendering:optimizeQuality; fill-rule:evenodd; clip-rule:evenodd" xmlns:xlink="http://www.w3.org/1999/xlink">
<g><path style="opacity:0.922" fill="#fefffe" d="M 22.5,7.5 C 28.5092,7.33385 34.5092,7.50051 40.5,8C 42.2134,9.37818 43.5467,11.0448 44.5,13C 46.1341,13.4935 47.8008,13.6602 49.5,13.5C 49.5,12.5 49.5,11.5 49.5,10.5C 51.5,10.5 53.5,10.5 55.5,10.5C 55.5,11.5 55.5,12.5 55.5,13.5C 57.5,13.5 59.5,13.5 61.5,13.5C 61.5,27.5 61.5,41.5 61.5,55.5C 41.5,55.5 21.5,55.5 1.5,55.5C 1.5,41.5 1.5,27.5 1.5,13.5C 3.5,13.5 5.5,13.5 7.5,13.5C 7.5,12.1667 7.5,10.8333 7.5,9.5C 10.8333,9.5 14.1667,9.5 17.5,9.5C 17.3433,10.8734 17.51,12.2068 18,13.5C 19.332,11.34 20.832,9.34004 22.5,7.5 Z M 25.5,9.5 C 29.5138,9.33449 33.5138,9.50115 37.5,10C 39.1757,11.1769 40.5091,12.6769 41.5,14.5C 47.3866,15.1864 53.2199,15.853 59,16.5C 59.8211,28.7425 59.6544,40.9092 58.5,53C 40.2597,53.8252 22.0931,53.6585 4,52.5C 3.33333,40.5 3.33333,28.5 4,16.5C 9.78009,15.853 15.6134,15.1864 21.5,14.5C 22.6125,12.5808 23.9458,10.9142 25.5,9.5 Z M 9.5,11.5 C 11.604,11.2011 13.604,11.5344 15.5,12.5C 14.5,12.8333 13.5,13.1667 12.5,13.5C 10.9704,13.3601 9.97041,12.6935 9.5,11.5 Z M 27.5,26.5 C 36.6571,25.4892 40.4904,29.4892 39,38.5C 34,43.8333 29,43.8333 24,38.5C 22.5934,33.6427 23.76,29.6427 27.5,26.5 Z"/></g>
<g><path style="opacity:0.885" fill="#fefffe" d="M 5.5,17.5 C 6.58617,17.62 7.25284,18.2867 7.5,19.5C 7.16667,20.1667 6.83333,20.8333 6.5,21.5C 5.57131,20.3112 5.23798,18.9778 5.5,17.5 Z"/></g>
<g><path style="opacity:0.885" fill="#fefffe" d="M 10.5,17.5 C 11.5862,17.62 12.2528,18.2867 12.5,19.5C 12.1667,20.1667 11.8333,20.8333 11.5,21.5C 10.5713,20.3112 10.238,18.9778 10.5,17.5 Z"/></g>
<g><path style="opacity:0.885" fill="#fefffe" d="M 15.5,17.5 C 16.5862,17.62 17.2528,18.2867 17.5,19.5C 17.1667,20.1667 16.8333,20.8333 16.5,21.5C 15.5713,20.3112 15.238,18.9778 15.5,17.5 Z"/></g>
<g><path style="opacity:0.881" fill="#fefffe" d="M 22.5,21.5 C 21.4138,21.38 20.7472,20.7133 20.5,19.5C 20.8333,18.8333 21.1667,18.1667 21.5,17.5C 22.4287,18.6888 22.762,20.0222 22.5,21.5 Z"/></g>
<g><path style="opacity:0.639" fill="#fefffe" d="M 40.5,21.5 C 46.2029,26.4811 48.0362,32.8144 46,40.5C 40.8483,49.4747 33.3483,51.9747 23.5,48C 16.8561,43.1741 14.6895,36.6741 17,28.5C 18.3823,25.6945 20.2156,23.3612 22.5,21.5C 24.3428,20.754 25.6761,19.4206 26.5,17.5C 28.1667,20.1667 29.8333,20.1667 31.5,17.5C 33.1667,20.1667 34.8333,20.1667 36.5,17.5C 37.3239,19.4206 38.6572,20.754 40.5,21.5 Z M 27.5,26.5 C 23.76,29.6427 22.5934,33.6427 24,38.5C 29,43.8333 34,43.8333 39,38.5C 40.4904,29.4892 36.6571,25.4892 27.5,26.5 Z"/></g>
<g><path style="opacity:0.881" fill="#fefffe" d="M 40.5,21.5 C 40.238,20.0222 40.5713,18.6888 41.5,17.5C 41.8333,18.1667 42.1667,18.8333 42.5,19.5C 42.2528,20.7133 41.5862,21.38 40.5,21.5 Z"/></g>
<g><path style="opacity:0.885" fill="#fefffe" d="M 45.5,17.5 C 46.5862,17.62 47.2528,18.2867 47.5,19.5C 47.1667,20.1667 46.8333,20.8333 46.5,21.5C 45.5713,20.3112 45.238,18.9778 45.5,17.5 Z"/></g>
<g><path style="opacity:0.885" fill="#fefffe" d="M 50.5,17.5 C 51.5862,17.62 52.2528,18.2867 52.5,19.5C 52.1667,20.1667 51.8333,20.8333 51.5,21.5C 50.5713,20.3112 50.238,18.9778 50.5,17.5 Z"/></g>
<g><path style="opacity:0.885" fill="#fefffe" d="M 55.5,17.5 C 56.5862,17.62 57.2528,18.2867 57.5,19.5C 57.1667,20.1667 56.8333,20.8333 56.5,21.5C 55.5713,20.3112 55.238,18.9778 55.5,17.5 Z"/></g>
</svg>
