<?xml version="1.0" encoding="UTF-8"?>
<!DOCTYPE svg PUBLIC "-//W3C//DTD SVG 1.1//EN" "http://www.w3.org/Graphics/SVG/1.1/DTD/svg11.dtd">
<svg xmlns="http://www.w3.org/2000/svg" version="1.1" width="64px" height="64px" style="shape-rendering:geometricPrecision; text-rendering:geometricPrecision; image-rendering:optimizeQuality; fill-rule:evenodd; clip-rule:evenodd" xmlns:xlink="http://www.w3.org/1999/xlink">
<g><path style="opacity:0.925" fill="#fefffe" d="M 27.5,7.5 C 33.5092,7.33385 39.5092,7.50051 45.5,8C 47.2929,9.77991 48.9596,11.6132 50.5,13.5C 51.3857,12.675 51.719,11.675 51.5,10.5C 53.5,10.5 55.5,10.5 57.5,10.5C 57.5,11.5 57.5,12.5 57.5,13.5C 58.8333,13.5 60.1667,13.5 61.5,13.5C 61.5,27.5 61.5,41.5 61.5,55.5C 41.5,55.5 21.5,55.5 1.5,55.5C 1.5,41.5 1.5,27.5 1.5,13.5C 3.5,13.5 5.5,13.5 7.5,13.5C 7.5,12.1667 7.5,10.8333 7.5,9.5C 10.8333,9.5 14.1667,9.5 17.5,9.5C 17.5,10.8333 17.5,12.1667 17.5,13.5C 19.5273,13.6621 21.5273,13.4955 23.5,13C 24.6647,11.0083 25.998,9.17496 27.5,7.5 Z M 30.5,9.5 C 34.5138,9.33449 38.5138,9.50115 42.5,10C 44.1757,11.1769 45.5091,12.6769 46.5,14.5C 50.7127,15.1945 54.8794,15.8612 59,16.5C 59.8211,28.7425 59.6544,40.9092 58.5,53C 40.2597,53.8252 22.0931,53.6585 4,52.5C 3.33333,40.5 3.33333,28.5 4,16.5C 11.443,15.8486 18.943,15.1819 26.5,14.5C 27.6125,12.5808 28.9458,10.9142 30.5,9.5 Z M 9.5,11.5 C 11.604,11.2011 13.604,11.5344 15.5,12.5C 14.5,12.8333 13.5,13.1667 12.5,13.5C 10.9704,13.3601 9.97041,12.6935 9.5,11.5 Z M 41.5,23.5 C 38.1667,23.5 34.8333,23.5 31.5,23.5C 32.9972,22.6942 34.6639,22.0276 36.5,21.5C 38.3361,22.0276 40.0028,22.6942 41.5,23.5 Z M 34.5,25.5 C 44.0893,26.8848 46.9226,31.8848 43,40.5C 35.444,45.1493 30.2774,43.1493 27.5,34.5C 28.1878,30.0828 30.5211,27.0828 34.5,25.5 Z M 25.5,29.5 C 25.5,32.8333 25.5,36.1667 25.5,39.5C 24.6942,38.0028 24.0276,36.3361 23.5,34.5C 24.0276,32.6639 24.6942,30.9972 25.5,29.5 Z M 47.5,29.5 C 48.3058,30.9972 48.9724,32.6639 49.5,34.5C 48.9724,36.3361 48.3058,38.0028 47.5,39.5C 47.5,36.1667 47.5,32.8333 47.5,29.5 Z M 31.5,45.5 C 34.8333,45.5 38.1667,45.5 41.5,45.5C 40.0028,46.3058 38.3361,46.9724 36.5,47.5C 34.6639,46.9724 32.9972,46.3058 31.5,45.5 Z"/></g>
<g><path style="opacity:0.893" fill="#fefffe" d="M 5.5,17.5 C 6.58617,17.62 7.25284,18.2867 7.5,19.5C 7.16667,20.1667 6.83333,20.8333 6.5,21.5C 5.57131,20.3112 5.23798,18.9778 5.5,17.5 Z"/></g>
<g><path style="opacity:0.893" fill="#fefffe" d="M 10.5,17.5 C 11.5862,17.62 12.2528,18.2867 12.5,19.5C 12.1667,20.1667 11.8333,20.8333 11.5,21.5C 10.5713,20.3112 10.238,18.9778 10.5,17.5 Z"/></g>
<g><path style="opacity:0.893" fill="#fefffe" d="M 15.5,17.5 C 16.5862,17.62 17.2528,18.2867 17.5,19.5C 17.1667,20.1667 16.8333,20.8333 16.5,21.5C 15.5713,20.3112 15.238,18.9778 15.5,17.5 Z"/></g>
<g><path style="opacity:0.893" fill="#fefffe" d="M 20.5,17.5 C 21.5862,17.62 22.2528,18.2867 22.5,19.5C 22.1667,20.1667 21.8333,20.8333 21.5,21.5C 20.5713,20.3112 20.238,18.9778 20.5,17.5 Z"/></g>
<g><path style="opacity:0.893" fill="#fefffe" d="M 27.5,21.5 C 26.4138,21.38 25.7472,20.7133 25.5,19.5C 25.8333,18.8333 26.1667,18.1667 26.5,17.5C 27.4287,18.6888 27.762,20.0222 27.5,21.5 Z"/></g>
<g><path style="opacity:0.668" fill="#fefffe" d="M 45.5,21.5 C 51.2029,26.4811 53.0362,32.8144 51,40.5C 45.8483,49.4747 38.3483,51.9747 28.5,48C 21.8561,43.1741 19.6895,36.6741 22,28.5C 23.3823,25.6945 25.2156,23.3612 27.5,21.5C 29.3428,20.754 30.6761,19.4206 31.5,17.5C 33.1667,20.1667 34.8333,20.1667 36.5,17.5C 38.1667,20.1667 39.8333,20.1667 41.5,17.5C 42.3239,19.4206 43.6572,20.754 45.5,21.5 Z M 41.5,23.5 C 38.1667,23.5 34.8333,23.5 31.5,23.5C 32.9972,22.6942 34.6639,22.0276 36.5,21.5C 38.3361,22.0276 40.0028,22.6942 41.5,23.5 Z M 34.5,25.5 C 30.5211,27.0828 28.1878,30.0828 27.5,34.5C 30.2774,43.1493 35.444,45.1493 43,40.5C 46.9226,31.8848 44.0893,26.8848 34.5,25.5 Z M 25.5,29.5 C 25.5,32.8333 25.5,36.1667 25.5,39.5C 24.6942,38.0028 24.0276,36.3361 23.5,34.5C 24.0276,32.6639 24.6942,30.9972 25.5,29.5 Z M 47.5,29.5 C 48.3058,30.9972 48.9724,32.6639 49.5,34.5C 48.9724,36.3361 48.3058,38.0028 47.5,39.5C 47.5,36.1667 47.5,32.8333 47.5,29.5 Z M 31.5,45.5 C 34.8333,45.5 38.1667,45.5 41.5,45.5C 40.0028,46.3058 38.3361,46.9724 36.5,47.5C 34.6639,46.9724 32.9972,46.3058 31.5,45.5 Z"/></g>
<g><path style="opacity:0.893" fill="#fefffe" d="M 45.5,21.5 C 45.238,20.0222 45.5713,18.6888 46.5,17.5C 46.8333,18.1667 47.1667,18.8333 47.5,19.5C 47.2528,20.7133 46.5862,21.38 45.5,21.5 Z"/></g>
<g><path style="opacity:0.893" fill="#fefffe" d="M 50.5,17.5 C 51.5862,17.62 52.2528,18.2867 52.5,19.5C 52.1667,20.1667 51.8333,20.8333 51.5,21.5C 50.5713,20.3112 50.238,18.9778 50.5,17.5 Z"/></g>
<g><path style="opacity:0.893" fill="#fefffe" d="M 55.5,17.5 C 56.5862,17.62 57.2528,18.2867 57.5,19.5C 57.1667,20.1667 56.8333,20.8333 56.5,21.5C 55.5713,20.3112 55.238,18.9778 55.5,17.5 Z"/></g>
<g><path style="opacity:0.984" fill="#fefffe" d="M 15.5,23.5 C 16.8266,27.7825 17.4933,32.4492 17.5,37.5C 17.1667,42.1667 16.8333,46.8333 16.5,51.5C 15.5017,42.1904 15.1684,32.8571 15.5,23.5 Z"/></g>
<g><path style="opacity:0.629" fill="#fefffe" d="M 31.5,23.5 C 34.8333,23.5 38.1667,23.5 41.5,23.5C 41.8417,24.3382 42.5084,24.6716 43.5,24.5C 43.5,25.1667 43.8333,25.5 44.5,25.5C 44.5,26.1667 44.8333,26.5 45.5,26.5C 45.5,27.1667 45.8333,27.5 46.5,27.5C 46.3284,28.4916 46.6618,29.1583 47.5,29.5C 47.5,32.8333 47.5,36.1667 47.5,39.5C 46.6618,39.8417 46.3284,40.5084 46.5,41.5C 45.8333,41.5 45.5,41.8333 45.5,42.5C 44.8333,42.5 44.5,42.8333 44.5,43.5C 43.8333,43.5 43.5,43.8333 43.5,44.5C 42.5084,44.3284 41.8417,44.6618 41.5,45.5C 38.1667,45.5 34.8333,45.5 31.5,45.5C 31.1583,44.6618 30.4916,44.3284 29.5,44.5C 29.5,43.8333 29.1667,43.5 28.5,43.5C 28.5,42.8333 28.1667,42.5 27.5,42.5C 27.5,41.8333 27.1667,41.5 26.5,41.5C 26.6716,40.5084 26.3382,39.8417 25.5,39.5C 25.5,36.1667 25.5,32.8333 25.5,29.5C 26.3382,29.1583 26.6716,28.4916 26.5,27.5C 27.1667,27.5 27.5,27.1667 27.5,26.5C 28.1667,26.5 28.5,26.1667 28.5,25.5C 29.1667,25.5 29.5,25.1667 29.5,24.5C 30.4916,24.6716 31.1583,24.3382 31.5,23.5 Z M 34.5,25.5 C 30.5211,27.0828 28.1878,30.0828 27.5,34.5C 30.2774,43.1493 35.444,45.1493 43,40.5C 46.9226,31.8848 44.0893,26.8848 34.5,25.5 Z"/></g>
</svg>
