<?xml version="1.0" encoding="UTF-8"?>
<!DOCTYPE svg PUBLIC "-//W3C//DTD SVG 1.1//EN" "http://www.w3.org/Graphics/SVG/1.1/DTD/svg11.dtd">
<svg xmlns="http://www.w3.org/2000/svg" version="1.1" width="80px" height="80px" style="shape-rendering:geometricPrecision; text-rendering:geometricPrecision; image-rendering:optimizeQuality; fill-rule:evenodd; clip-rule:evenodd" xmlns:xlink="http://www.w3.org/1999/xlink">
<g><path style="opacity:0.831" fill="#000000" d="M 34.5,11.5 C 41.8409,11.3337 49.1742,11.5003 56.5,12C 58.019,13.3513 59.3523,14.8513 60.5,16.5C 63.6269,14.6881 66.9602,14.6881 70.5,16.5C 71.2162,18.482 72.3829,20.1487 74,21.5C 74.6667,35.5 74.6667,49.5 74,63.5C 73.5,64 73,64.5 72.5,65C 50.5,65.6667 28.5,65.6667 6.5,65C 6,64.5 5.5,64 5,63.5C 4.33333,49.1667 4.33333,34.8333 5,20.5C 8.18513,18.7095 11.6851,17.7095 15.5,17.5C 20.3658,19.3813 25.3658,19.2146 30.5,17C 31.6647,15.0083 32.998,13.175 34.5,11.5 Z M 37.5,13.5 C 42.8437,13.334 48.1771,13.5006 53.5,14C 55.5136,15.6829 57.1802,17.6829 58.5,20C 62.7705,20.903 66.9372,22.0697 71,23.5C 72.1283,29.8972 72.6283,36.3972 72.5,43C 72.3333,48.8333 72.1667,54.6667 72,60.5C 71.6924,61.3081 71.1924,61.9747 70.5,62.5C 50.21,63.6545 29.8767,63.8212 9.5,63C 8.69194,62.6924 8.02527,62.1924 7.5,61.5C 6.8524,55.2142 6.51907,48.8809 6.5,42.5C 6.37063,35.7311 6.87063,29.0644 8,22.5C 12.252,20.2099 16.4187,20.2099 20.5,22.5C 24.5224,21.7741 28.5224,20.9407 32.5,20C 34.0303,17.648 35.6969,15.4813 37.5,13.5 Z M 40.5,25.5 C 57.7649,25.2567 63.5982,33.2567 58,49.5C 51.7488,56.0107 44.5821,57.1773 36.5,53C 29.9893,46.7488 28.8227,39.5821 33,31.5C 35.1141,28.8792 37.6141,26.8792 40.5,25.5 Z M 11.5,26.5 C 13.4646,26.9483 13.7979,27.9483 12.5,29.5C 11.6143,28.675 11.281,27.675 11.5,26.5 Z M 41.5,30.5 C 51.9884,29.4874 56.4884,34.154 55,44.5C 52.0812,50.0248 47.5812,51.8581 41.5,50C 35.9752,47.0812 34.1419,42.5812 36,36.5C 37.3597,33.9774 39.193,31.9774 41.5,30.5 Z"/></g>
<g><path style="opacity:0.627" fill="#000000" d="M 39.5,22.5 C 44.5988,22.1746 49.5988,22.6746 54.5,24C 59.0599,28.2231 63.2266,32.7231 67,37.5C 67.6667,39.5 67.6667,41.5 67,43.5C 63.2266,48.2769 59.0599,52.7769 54.5,57C 33.3333,61.1667 24.8333,52.6667 29,31.5C 31.5054,27.1888 35.0054,24.1888 39.5,22.5 Z M 40.5,25.5 C 37.6141,26.8792 35.1141,28.8792 33,31.5C 28.8227,39.5821 29.9893,46.7488 36.5,53C 44.5821,57.1773 51.7488,56.0107 58,49.5C 63.5982,33.2567 57.7649,25.2567 40.5,25.5 Z M 41.5,30.5 C 39.193,31.9774 37.3597,33.9774 36,36.5C 34.1419,42.5812 35.9752,47.0812 41.5,50C 47.5812,51.8581 52.0812,50.0248 55,44.5C 56.4884,34.154 51.9884,29.4874 41.5,30.5 Z"/></g>
<g><path style="opacity:0.629" fill="#000000" d="M 10.5,23.5 C 16.6426,24.0262 17.9759,26.8595 14.5,32C 9.50365,32.6643 7.67031,30.4977 9,25.5C 9.71719,24.9558 10.2172,24.2891 10.5,23.5 Z M 11.5,26.5 C 11.281,27.675 11.6143,28.675 12.5,29.5C 13.7979,27.9483 13.4646,26.9483 11.5,26.5 Z"/></g>
<g><path style="opacity:0.766" fill="#000000" d="M 18.5,23.5 C 20.337,23.6395 20.6704,24.3061 19.5,25.5C 18.7025,25.0431 18.3691,24.3764 18.5,23.5 Z"/></g>
<g><path style="opacity:0.766" fill="#000000" d="M 18.5,27.5 C 20.337,27.6395 20.6704,28.3061 19.5,29.5C 18.7025,29.0431 18.3691,28.3764 18.5,27.5 Z"/></g>
<g><path style="opacity:0.633" fill="#000000" d="M 40.5,27.5 C 56.7289,26.9458 61.8956,34.2791 56,49.5C 49.8691,54.1956 43.3691,54.6956 36.5,51C 31.8044,44.8691 31.3044,38.3691 35,31.5C 36.8121,30.0229 38.6455,28.6896 40.5,27.5 Z M 41.5,30.5 C 39.193,31.9774 37.3597,33.9774 36,36.5C 34.1419,42.5812 35.9752,47.0812 41.5,50C 47.5812,51.8581 52.0812,50.0248 55,44.5C 56.4884,34.154 51.9884,29.4874 41.5,30.5 Z"/></g>
<g><path style="opacity:0.766" fill="#000000" d="M 18.5,31.5 C 20.337,31.6395 20.6704,32.3061 19.5,33.5C 18.7025,33.0431 18.3691,32.3764 18.5,31.5 Z"/></g>
<g><path style="opacity:0.766" fill="#000000" d="M 18.5,35.5 C 20.337,35.6395 20.6704,36.3061 19.5,37.5C 18.7025,37.0431 18.3691,36.3764 18.5,35.5 Z"/></g>
<g><path style="opacity:0.766" fill="#000000" d="M 18.5,39.5 C 20.337,39.6395 20.6704,40.3061 19.5,41.5C 18.7025,41.0431 18.3691,40.3764 18.5,39.5 Z"/></g>
<g><path style="opacity:0.766" fill="#000000" d="M 18.5,43.5 C 20.337,43.6395 20.6704,44.3061 19.5,45.5C 18.7025,45.0431 18.3691,44.3764 18.5,43.5 Z"/></g>
<g><path style="opacity:0.766" fill="#000000" d="M 18.5,47.5 C 20.337,47.6395 20.6704,48.3061 19.5,49.5C 18.7025,49.0431 18.3691,48.3764 18.5,47.5 Z"/></g>
<g><path style="opacity:0.766" fill="#000000" d="M 18.5,51.5 C 20.337,51.6395 20.6704,52.3061 19.5,53.5C 18.7025,53.0431 18.3691,52.3764 18.5,51.5 Z"/></g>
<g><path style="opacity:0.766" fill="#000000" d="M 18.5,55.5 C 20.337,55.6395 20.6704,56.3061 19.5,57.5C 18.7025,57.0431 18.3691,56.3764 18.5,55.5 Z"/></g>
<g><path style="opacity:0.766" fill="#000000" d="M 18.5,59.5 C 20.337,59.6395 20.6704,60.3061 19.5,61.5C 18.7025,61.0431 18.3691,60.3764 18.5,59.5 Z"/></g>
</svg>
