<?xml version="1.0" encoding="UTF-8"?>
<!DOCTYPE svg PUBLIC "-//W3C//DTD SVG 1.1//EN" "http://www.w3.org/Graphics/SVG/1.1/DTD/svg11.dtd">
<svg xmlns="http://www.w3.org/2000/svg" version="1.1" width="80px" height="80px" style="shape-rendering:geometricPrecision; text-rendering:geometricPrecision; image-rendering:optimizeQuality; fill-rule:evenodd; clip-rule:evenodd" xmlns:xlink="http://www.w3.org/1999/xlink">
<g><path style="opacity:0.9" fill="#000000" d="M 14.5,8.5 C 31.8333,8.5 49.1667,8.5 66.5,8.5C 66.5,29.1667 66.5,49.8333 66.5,70.5C 49.1667,70.5 31.8333,70.5 14.5,70.5C 14.5,67.5 14.5,64.5 14.5,61.5C 11.0696,62.2447 9.40298,60.9114 9.5,57.5C 9.40298,54.0886 11.0696,52.7553 14.5,53.5C 14.5,52.5 14.5,51.5 14.5,50.5C 11.0696,51.2447 9.40298,49.9114 9.5,46.5C 9.40298,43.0886 11.0696,41.7553 14.5,42.5C 14.5,41.5 14.5,40.5 14.5,39.5C 11.0696,40.2447 9.40298,38.9114 9.5,35.5C 9.40298,32.0886 11.0696,30.7553 14.5,31.5C 14.5,30.5 14.5,29.5 14.5,28.5C 11.0696,29.2447 9.40298,27.9114 9.5,24.5C 9.40298,21.0886 11.0696,19.7553 14.5,20.5C 14.5,16.5 14.5,12.5 14.5,8.5 Z M 17.5,10.5 C 33.0779,10.1756 48.5779,10.509 64,11.5C 64.6667,30.1667 64.6667,48.8333 64,67.5C 48.5744,68.6571 33.0744,68.8238 17.5,68C 16.8666,64.541 16.2,61.041 15.5,57.5C 14.5,60.1667 13.5,60.1667 12.5,57.5C 12.9996,56.1195 13.9996,55.4528 15.5,55.5C 17.3337,56.7545 19.3337,57.4211 21.5,57.5C 21.5,56.1667 21.5,54.8333 21.5,53.5C 19.8333,53.5 18.1667,53.5 16.5,53.5C 16.8076,51.076 16.4742,48.7427 15.5,46.5C 13.7752,48.9616 12.9418,48.6283 13,45.5C 13.7247,44.9415 14.5581,44.6082 15.5,44.5C 17.3337,45.7545 19.3337,46.4211 21.5,46.5C 21.5,45.1667 21.5,43.8333 21.5,42.5C 19.8333,42.5 18.1667,42.5 16.5,42.5C 16.8076,40.076 16.4742,37.7427 15.5,35.5C 13.7752,37.9616 12.9418,37.6283 13,34.5C 13.7247,33.9415 14.5581,33.6082 15.5,33.5C 17.3337,34.7545 19.3337,35.4211 21.5,35.5C 21.5,34.1667 21.5,32.8333 21.5,31.5C 19.8333,31.5 18.1667,31.5 16.5,31.5C 16.8076,29.076 16.4742,26.7427 15.5,24.5C 13.7752,26.9616 12.9418,26.6283 13,23.5C 13.7247,22.9415 14.5581,22.6082 15.5,22.5C 17.3337,23.7545 19.3337,24.4211 21.5,24.5C 21.5,23.1667 21.5,21.8333 21.5,20.5C 19.8333,20.5 18.1667,20.5 16.5,20.5C 16.2529,17.0613 16.5863,13.728 17.5,10.5 Z M 30.5,22.5 C 37.1667,22.5 43.8333,22.5 50.5,22.5C 50.5,25.8333 50.5,29.1667 50.5,32.5C 43.8333,32.5 37.1667,32.5 30.5,32.5C 30.5,29.1667 30.5,25.8333 30.5,22.5 Z"/></g>
<g><path style="opacity:0.766" fill="#000000" d="M 20.5,12.5 C 22.337,12.6395 22.6704,13.3061 21.5,14.5C 20.7025,14.0431 20.3691,13.3764 20.5,12.5 Z"/></g>
<g><path style="opacity:0.766" fill="#000000" d="M 24.5,12.5 C 26.337,12.6395 26.6704,13.3061 25.5,14.5C 24.7025,14.0431 24.3691,13.3764 24.5,12.5 Z"/></g>
<g><path style="opacity:0.766" fill="#000000" d="M 28.5,12.5 C 30.337,12.6395 30.6704,13.3061 29.5,14.5C 28.7025,14.0431 28.3691,13.3764 28.5,12.5 Z"/></g>
<g><path style="opacity:0.766" fill="#000000" d="M 32.5,12.5 C 34.337,12.6395 34.6704,13.3061 33.5,14.5C 32.7025,14.0431 32.3691,13.3764 32.5,12.5 Z"/></g>
<g><path style="opacity:0.766" fill="#000000" d="M 36.5,12.5 C 38.337,12.6395 38.6704,13.3061 37.5,14.5C 36.7025,14.0431 36.3691,13.3764 36.5,12.5 Z"/></g>
<g><path style="opacity:0.766" fill="#000000" d="M 40.5,12.5 C 42.337,12.6395 42.6704,13.3061 41.5,14.5C 40.7025,14.0431 40.3691,13.3764 40.5,12.5 Z"/></g>
<g><path style="opacity:0.766" fill="#000000" d="M 44.5,12.5 C 46.337,12.6395 46.6704,13.3061 45.5,14.5C 44.7025,14.0431 44.3691,13.3764 44.5,12.5 Z"/></g>
<g><path style="opacity:0.766" fill="#000000" d="M 48.5,12.5 C 50.337,12.6395 50.6704,13.3061 49.5,14.5C 48.7025,14.0431 48.3691,13.3764 48.5,12.5 Z"/></g>
<g><path style="opacity:0.766" fill="#000000" d="M 52.5,12.5 C 54.337,12.6395 54.6704,13.3061 53.5,14.5C 52.7025,14.0431 52.3691,13.3764 52.5,12.5 Z"/></g>
<g><path style="opacity:0.766" fill="#000000" d="M 56.5,12.5 C 58.337,12.6395 58.6704,13.3061 57.5,14.5C 56.7025,14.0431 56.3691,13.3764 56.5,12.5 Z"/></g>
<g><path style="opacity:0.766" fill="#000000" d="M 60.5,12.5 C 62.337,12.6395 62.6704,13.3061 61.5,14.5C 60.7025,14.0431 60.3691,13.3764 60.5,12.5 Z"/></g>
<g><path style="opacity:0.766" fill="#000000" d="M 60.5,16.5 C 62.337,16.6395 62.6704,17.3061 61.5,18.5C 60.7025,18.0431 60.3691,17.3764 60.5,16.5 Z"/></g>
<g><path style="opacity:1" fill="#000000" d="M 28.5,20.5 C 36.5,20.5 44.5,20.5 52.5,20.5C 52.5,25.1667 52.5,29.8333 52.5,34.5C 44.5,34.5 36.5,34.5 28.5,34.5C 28.5,29.8333 28.5,25.1667 28.5,20.5 Z M 30.5,22.5 C 30.5,25.8333 30.5,29.1667 30.5,32.5C 37.1667,32.5 43.8333,32.5 50.5,32.5C 50.5,29.1667 50.5,25.8333 50.5,22.5C 43.8333,22.5 37.1667,22.5 30.5,22.5 Z"/></g>
<g><path style="opacity:0.766" fill="#000000" d="M 60.5,20.5 C 62.337,20.6395 62.6704,21.3061 61.5,22.5C 60.7025,22.0431 60.3691,21.3764 60.5,20.5 Z"/></g>
<g><path style="opacity:0.766" fill="#000000" d="M 60.5,24.5 C 62.337,24.6395 62.6704,25.3061 61.5,26.5C 60.7025,26.0431 60.3691,25.3764 60.5,24.5 Z"/></g>
<g><path style="opacity:1" fill="#000000" d="M 33.5,26.5 C 38.2137,26.1734 42.8804,26.5067 47.5,27.5C 45.1667,27.8333 42.8333,28.1667 40.5,28.5C 37.7305,28.4714 35.3972,27.8048 33.5,26.5 Z"/></g>
<g><path style="opacity:0.766" fill="#000000" d="M 60.5,28.5 C 62.337,28.6395 62.6704,29.3061 61.5,30.5C 60.7025,30.0431 60.3691,29.3764 60.5,28.5 Z"/></g>
<g><path style="opacity:0.766" fill="#000000" d="M 60.5,32.5 C 62.337,32.6395 62.6704,33.3061 61.5,34.5C 60.7025,34.0431 60.3691,33.3764 60.5,32.5 Z"/></g>
<g><path style="opacity:0.766" fill="#000000" d="M 60.5,36.5 C 62.337,36.6395 62.6704,37.3061 61.5,38.5C 60.7025,38.0431 60.3691,37.3764 60.5,36.5 Z"/></g>
<g><path style="opacity:0.766" fill="#000000" d="M 60.5,40.5 C 62.337,40.6395 62.6704,41.3061 61.5,42.5C 60.7025,42.0431 60.3691,41.3764 60.5,40.5 Z"/></g>
<g><path style="opacity:0.766" fill="#000000" d="M 60.5,44.5 C 62.337,44.6395 62.6704,45.3061 61.5,46.5C 60.7025,46.0431 60.3691,45.3764 60.5,44.5 Z"/></g>
<g><path style="opacity:0.766" fill="#000000" d="M 60.5,48.5 C 62.337,48.6395 62.6704,49.3061 61.5,50.5C 60.7025,50.0431 60.3691,49.3764 60.5,48.5 Z"/></g>
<g><path style="opacity:0.766" fill="#000000" d="M 60.5,52.5 C 62.337,52.6395 62.6704,53.3061 61.5,54.5C 60.7025,54.0431 60.3691,53.3764 60.5,52.5 Z"/></g>
<g><path style="opacity:0.766" fill="#000000" d="M 60.5,56.5 C 62.337,56.6395 62.6704,57.3061 61.5,58.5C 60.7025,58.0431 60.3691,57.3764 60.5,56.5 Z"/></g>
<g><path style="opacity:0.766" fill="#000000" d="M 60.5,60.5 C 62.337,60.6395 62.6704,61.3061 61.5,62.5C 60.7025,62.0431 60.3691,61.3764 60.5,60.5 Z"/></g>
<g><path style="opacity:0.766" fill="#000000" d="M 20.5,64.5 C 22.337,64.6395 22.6704,65.3061 21.5,66.5C 20.7025,66.0431 20.3691,65.3764 20.5,64.5 Z"/></g>
<g><path style="opacity:0.766" fill="#000000" d="M 24.5,64.5 C 26.337,64.6395 26.6704,65.3061 25.5,66.5C 24.7025,66.0431 24.3691,65.3764 24.5,64.5 Z"/></g>
<g><path style="opacity:0.766" fill="#000000" d="M 28.5,64.5 C 30.337,64.6395 30.6704,65.3061 29.5,66.5C 28.7025,66.0431 28.3691,65.3764 28.5,64.5 Z"/></g>
<g><path style="opacity:0.766" fill="#000000" d="M 32.5,64.5 C 34.337,64.6395 34.6704,65.3061 33.5,66.5C 32.7025,66.0431 32.3691,65.3764 32.5,64.5 Z"/></g>
<g><path style="opacity:0.766" fill="#000000" d="M 36.5,64.5 C 38.337,64.6395 38.6704,65.3061 37.5,66.5C 36.7025,66.0431 36.3691,65.3764 36.5,64.5 Z"/></g>
<g><path style="opacity:0.766" fill="#000000" d="M 40.5,64.5 C 42.337,64.6395 42.6704,65.3061 41.5,66.5C 40.7025,66.0431 40.3691,65.3764 40.5,64.5 Z"/></g>
<g><path style="opacity:0.766" fill="#000000" d="M 44.5,64.5 C 46.337,64.6395 46.6704,65.3061 45.5,66.5C 44.7025,66.0431 44.3691,65.3764 44.5,64.5 Z"/></g>
<g><path style="opacity:0.766" fill="#000000" d="M 48.5,64.5 C 50.337,64.6395 50.6704,65.3061 49.5,66.5C 48.7025,66.0431 48.3691,65.3764 48.5,64.5 Z"/></g>
<g><path style="opacity:0.766" fill="#000000" d="M 52.5,64.5 C 54.337,64.6395 54.6704,65.3061 53.5,66.5C 52.7025,66.0431 52.3691,65.3764 52.5,64.5 Z"/></g>
<g><path style="opacity:0.766" fill="#000000" d="M 56.5,64.5 C 58.337,64.6395 58.6704,65.3061 57.5,66.5C 56.7025,66.0431 56.3691,65.3764 56.5,64.5 Z"/></g>
<g><path style="opacity:0.766" fill="#000000" d="M 60.5,64.5 C 62.337,64.6395 62.6704,65.3061 61.5,66.5C 60.7025,66.0431 60.3691,65.3764 60.5,64.5 Z"/></g>
</svg>
