<?xml version="1.0" encoding="UTF-8"?>
<!DOCTYPE svg PUBLIC "-//W3C//DTD SVG 1.1//EN" "http://www.w3.org/Graphics/SVG/1.1/DTD/svg11.dtd">
<svg xmlns="http://www.w3.org/2000/svg" version="1.1" width="64px" height="64px" style="shape-rendering:geometricPrecision; text-rendering:geometricPrecision; image-rendering:optimizeQuality; fill-rule:evenodd; clip-rule:evenodd" xmlns:xlink="http://www.w3.org/1999/xlink">
<g><path style="opacity:0.964" fill="#25dd21" d="M 27.5,-0.5 C 30.1667,-0.5 32.8333,-0.5 35.5,-0.5C 37.1002,0.644443 38.7669,1.81111 40.5,3C 46.1569,3.49942 51.8236,3.66609 57.5,3.5C 57.5,22.8333 57.5,42.1667 57.5,61.5C 40.1667,61.5 22.8333,61.5 5.5,61.5C 5.5,42.1667 5.5,22.8333 5.5,3.5C 11.1764,3.66609 16.8431,3.49942 22.5,3C 24.2331,1.81111 25.8998,0.644443 27.5,-0.5 Z M 26.5,3.5 C 28.256,4.55213 28.9227,6.21879 28.5,8.5C 30.5,8.5 32.5,8.5 34.5,8.5C 34.2148,6.71199 34.5481,5.04533 35.5,3.5C 37.1667,4.83333 38.8333,6.16667 40.5,7.5C 41.7111,8.7202 41.7111,9.88686 40.5,11C 34.5,11.6667 28.5,11.6667 22.5,11C 21.2889,9.88686 21.2889,8.7202 22.5,7.5C 24.188,6.4787 25.5213,5.14537 26.5,3.5 Z M 8.5,5.5 C 12.1667,5.5 15.8333,5.5 19.5,5.5C 19.5,6.83333 19.5,8.16667 19.5,9.5C 16.8333,9.5 14.1667,9.5 11.5,9.5C 11.5,24.8333 11.5,40.1667 11.5,55.5C 22.505,55.6665 33.505,55.4998 44.5,55C 46.6667,52.8333 48.8333,50.6667 51,48.5C 51.4999,35.5043 51.6666,22.5043 51.5,9.5C 48.8333,9.5 46.1667,9.5 43.5,9.5C 43.5,8.16667 43.5,6.83333 43.5,5.5C 47.4367,5.20653 51.27,5.53986 55,6.5C 55.6667,23.8333 55.6667,41.1667 55,58.5C 47.2427,59.1591 39.4093,59.4924 31.5,59.5C 23.5907,59.4924 15.7573,59.1591 8,58.5C 7.18153,40.7597 7.3482,23.093 8.5,5.5 Z M 13.5,11.5 C 25.5,14.1667 37.5,14.1667 49.5,11.5C 49.5,22.8333 49.5,34.1667 49.5,45.5C 46.8333,45.5 44.1667,45.5 41.5,45.5C 41.5,48.1667 41.5,50.8333 41.5,53.5C 32.1667,53.5 22.8333,53.5 13.5,53.5C 13.5,39.5 13.5,25.5 13.5,11.5 Z M 43.5,47.5 C 47.1331,47.443 47.2998,48.443 44,50.5C 43.5172,49.552 43.3505,48.552 43.5,47.5 Z"/></g>
<g><path style="opacity:0.883" fill="#24de20" d="M 15.5,15.5 C 16.5862,15.62 17.2528,16.2867 17.5,17.5C 17.1667,18.1667 16.8333,18.8333 16.5,19.5C 15.5713,18.3112 15.238,16.9778 15.5,15.5 Z"/></g>
<g><path style="opacity:0.883" fill="#24de20" d="M 20.5,15.5 C 21.5862,15.62 22.2528,16.2867 22.5,17.5C 22.1667,18.1667 21.8333,18.8333 21.5,19.5C 20.5713,18.3112 20.238,16.9778 20.5,15.5 Z"/></g>
<g><path style="opacity:0.883" fill="#24de20" d="M 25.5,15.5 C 26.5862,15.62 27.2528,16.2867 27.5,17.5C 27.1667,18.1667 26.8333,18.8333 26.5,19.5C 25.5713,18.3112 25.238,16.9778 25.5,15.5 Z"/></g>
<g><path style="opacity:0.883" fill="#24de20" d="M 30.5,15.5 C 31.5862,15.62 32.2528,16.2867 32.5,17.5C 32.1667,18.1667 31.8333,18.8333 31.5,19.5C 30.5713,18.3112 30.238,16.9778 30.5,15.5 Z"/></g>
<g><path style="opacity:0.883" fill="#24de20" d="M 35.5,15.5 C 36.5862,15.62 37.2528,16.2867 37.5,17.5C 37.1667,18.1667 36.8333,18.8333 36.5,19.5C 35.5713,18.3112 35.238,16.9778 35.5,15.5 Z"/></g>
<g><path style="opacity:0.883" fill="#24de20" d="M 40.5,15.5 C 41.5862,15.62 42.2528,16.2867 42.5,17.5C 42.1667,18.1667 41.8333,18.8333 41.5,19.5C 40.5713,18.3112 40.238,16.9778 40.5,15.5 Z"/></g>
<g><path style="opacity:0.883" fill="#24de20" d="M 45.5,15.5 C 46.5862,15.62 47.2528,16.2867 47.5,17.5C 47.1667,18.1667 46.8333,18.8333 46.5,19.5C 45.5713,18.3112 45.238,16.9778 45.5,15.5 Z"/></g>
<g><path style="opacity:0.655" fill="#23dd20" d="M 42.5,25.5 C 43.5,25.5 44.5,25.5 45.5,25.5C 45.0369,29.8026 42.7035,31.6359 38.5,31C 37.6634,29.9887 37.33,28.8221 37.5,27.5C 39.698,27.8799 41.3646,27.2132 42.5,25.5 Z"/></g>
<g><path style="opacity:0.942" fill="#24de20" d="M 18.5,27.5 C 21.2469,27.1866 23.9135,27.52 26.5,28.5C 25.1667,28.8333 23.8333,29.1667 22.5,29.5C 20.6672,29.4146 19.3339,28.7479 18.5,27.5 Z"/></g>
<g><path style="opacity:0.922" fill="#24de20" d="M 28.5,27.5 C 30.604,27.2011 32.604,27.5344 34.5,28.5C 33.5,28.8333 32.5,29.1667 31.5,29.5C 29.9704,29.3601 28.9704,28.6935 28.5,27.5 Z"/></g>
<g><path style="opacity:0.688" fill="#24dd20" d="M 38.5,35.5 C 40.5,35.5 42.5,35.5 44.5,35.5C 44.5,37.5 44.5,39.5 44.5,41.5C 42.5,41.5 40.5,41.5 38.5,41.5C 38.5,39.5 38.5,37.5 38.5,35.5 Z"/></g>
<g><path style="opacity:0.971" fill="#24de20" d="M 18.5,37.5 C 23.8746,37.1718 29.2079,37.5052 34.5,38.5C 31.8333,38.8333 29.1667,39.1667 26.5,39.5C 23.4098,39.4783 20.7432,38.8117 18.5,37.5 Z"/></g>
</svg>
