<?xml version="1.0" encoding="UTF-8"?>
<!DOCTYPE svg PUBLIC "-//W3C//DTD SVG 1.1//EN" "http://www.w3.org/Graphics/SVG/1.1/DTD/svg11.dtd">
<svg xmlns="http://www.w3.org/2000/svg" version="1.1" width="64px" height="64px" style="shape-rendering:geometricPrecision; text-rendering:geometricPrecision; image-rendering:optimizeQuality; fill-rule:evenodd; clip-rule:evenodd" xmlns:xlink="http://www.w3.org/1999/xlink">
<g><path style="opacity:0.631" fill="#fefffe" d="M 32.5,15.5 C 38.0746,19.5675 43.2413,24.2341 48,29.5C 48.6667,30.8333 48.6667,32.1667 48,33.5C 39.5,42 31,50.5 22.5,59C 19.2106,59.7464 16.7106,58.5797 15,55.5C 14.3653,53.3646 14.6986,51.3646 16,49.5C 22.0149,43.6521 27.8482,37.6521 33.5,31.5C 27.8482,25.3479 22.0149,19.3479 16,13.5C 13.4975,8.4733 14.9975,5.13996 20.5,3.5C 22.7277,4.21864 24.561,5.55197 26,7.5C 26.5628,8.72485 26.2295,9.72485 25,10.5C 23.6487,8.98101 22.1487,7.64768 20.5,6.5C 18.5247,7.27523 17.6913,8.60856 18,10.5C 25.0147,17.3477 31.848,24.3477 38.5,31.5C 34.0152,36.4852 29.3485,41.3186 24.5,46C 25.6667,47.1667 26.8333,48.3333 28,49.5C 34.0149,43.6521 39.8482,37.6521 45.5,31.5C 41.5154,27.0149 37.3487,22.6816 33,18.5C 32.5172,17.552 32.3505,16.552 32.5,15.5 Z M 22.5,47.5 C 26.611,52.7911 26.2777,53.2911 21.5,49C 22.056,48.6174 22.3893,48.1174 22.5,47.5 Z M 19.5,50.5 C 20.3063,51.8675 21.3063,53.2008 22.5,54.5C 20.5434,57.0591 18.8767,56.7258 17.5,53.5C 18.1925,52.4822 18.8592,51.4822 19.5,50.5 Z"/></g>
<g><path style="opacity:0.581" fill="#fefffe" d="M 32.5,15.5 C 30.0968,15.607 28.2635,14.607 27,12.5C 26.4372,11.2752 26.7705,10.2752 28,9.5C 30.1267,11.1137 31.6267,13.1137 32.5,15.5 Z"/></g>
</svg>
