<?xml version="1.0" encoding="UTF-8"?>
<!DOCTYPE svg PUBLIC "-//W3C//DTD SVG 1.1//EN" "http://www.w3.org/Graphics/SVG/1.1/DTD/svg11.dtd">
<svg xmlns="http://www.w3.org/2000/svg" version="1.1" width="64px" height="64px" style="shape-rendering:geometricPrecision; text-rendering:geometricPrecision; image-rendering:optimizeQuality; fill-rule:evenodd; clip-rule:evenodd" xmlns:xlink="http://www.w3.org/1999/xlink">
<g><path style="opacity:0.979" fill="#25dc22" d="M 7.5,7.5 C 11.5,7.5 15.5,7.5 19.5,7.5C 19.5,22.8333 19.5,38.1667 19.5,53.5C 15.5,53.5 11.5,53.5 7.5,53.5C 7.5,38.1667 7.5,22.8333 7.5,7.5 Z M 10.5,9.5 C 12.5,9.5 14.5,9.5 16.5,9.5C 16.5,23.5 16.5,37.5 16.5,51.5C 14.2075,51.7564 12.0408,51.4231 10,50.5C 9.18601,36.7584 9.35267,23.0917 10.5,9.5 Z"/></g>
<g><path style="opacity:0.841" fill="#24de20" d="M 25.5,6.5 C 36.1142,12.4782 46.4476,18.9782 56.5,26C 60.0316,28.2856 60.6982,30.9522 58.5,34C 48.003,41.0828 37.3363,47.9162 26.5,54.5C 25.8333,54.1667 25.1667,53.8333 24.5,53.5C 24.1667,45.8333 23.8333,38.1667 23.5,30.5C 23.5319,22.2671 24.1986,14.2671 25.5,6.5 Z M 25.5,10.5 C 36.2869,16.3978 46.6202,23.0644 56.5,30.5C 46.8809,37.6497 36.8809,44.3163 26.5,50.5C 25.5008,37.1833 25.1675,23.85 25.5,10.5 Z"/></g>
<g><path style="opacity:0.883" fill="#24de20" d="M 11.5,11.5 C 12.9778,11.238 14.3112,11.5713 15.5,12.5C 14.8333,12.8333 14.1667,13.1667 13.5,13.5C 12.2867,13.2528 11.62,12.5862 11.5,11.5 Z"/></g>
<g><path style="opacity:0.883" fill="#24de20" d="M 11.5,16.5 C 12.9778,16.238 14.3112,16.5713 15.5,17.5C 14.8333,17.8333 14.1667,18.1667 13.5,18.5C 12.2867,18.2528 11.62,17.5862 11.5,16.5 Z"/></g>
<g><path style="opacity:0.883" fill="#24de20" d="M 11.5,21.5 C 12.9778,21.238 14.3112,21.5713 15.5,22.5C 14.8333,22.8333 14.1667,23.1667 13.5,23.5C 12.2867,23.2528 11.62,22.5862 11.5,21.5 Z"/></g>
<g><path style="opacity:0.883" fill="#24de20" d="M 11.5,26.5 C 12.9778,26.238 14.3112,26.5713 15.5,27.5C 14.8333,27.8333 14.1667,28.1667 13.5,28.5C 12.2867,28.2528 11.62,27.5862 11.5,26.5 Z"/></g>
<g><path style="opacity:0.883" fill="#24de20" d="M 11.5,31.5 C 12.9778,31.238 14.3112,31.5713 15.5,32.5C 14.8333,32.8333 14.1667,33.1667 13.5,33.5C 12.2867,33.2528 11.62,32.5862 11.5,31.5 Z"/></g>
<g><path style="opacity:0.581" fill="#26db23" d="M 46.5,31.5 C 51.4669,31.5843 51.8003,32.9177 47.5,35.5C 45.3576,34.5629 45.0243,33.2296 46.5,31.5 Z"/></g>
<g><path style="opacity:0.74" fill="#24de20" d="M 42.5,34.5 C 43.7562,34.4614 44.7562,34.9614 45.5,36C 41.0064,39.4141 36.3397,42.5808 31.5,45.5C 30.4173,44.635 30.2506,43.635 31,42.5C 34.8124,39.6877 38.6457,37.021 42.5,34.5 Z"/></g>
<g><path style="opacity:0.883" fill="#24de20" d="M 11.5,36.5 C 12.9778,36.238 14.3112,36.5713 15.5,37.5C 14.8333,37.8333 14.1667,38.1667 13.5,38.5C 12.2867,38.2528 11.62,37.5862 11.5,36.5 Z"/></g>
<g><path style="opacity:0.883" fill="#24de20" d="M 11.5,41.5 C 12.9778,41.238 14.3112,41.5713 15.5,42.5C 14.8333,42.8333 14.1667,43.1667 13.5,43.5C 12.2867,43.2528 11.62,42.5862 11.5,41.5 Z"/></g>
<g><path style="opacity:0.883" fill="#24de20" d="M 11.5,46.5 C 12.9778,46.238 14.3112,46.5713 15.5,47.5C 14.8333,47.8333 14.1667,48.1667 13.5,48.5C 12.2867,48.2528 11.62,47.5862 11.5,46.5 Z"/></g>
</svg>
