<?xml version="1.0" encoding="UTF-8"?>
<!DOCTYPE svg PUBLIC "-//W3C//DTD SVG 1.1//EN" "http://www.w3.org/Graphics/SVG/1.1/DTD/svg11.dtd">
<svg xmlns="http://www.w3.org/2000/svg" version="1.1" width="64px" height="64px" style="shape-rendering:geometricPrecision; text-rendering:geometricPrecision; image-rendering:optimizeQuality; fill-rule:evenodd; clip-rule:evenodd" xmlns:xlink="http://www.w3.org/1999/xlink">
<g><path style="opacity:0.729" fill="#fefffe" d="M 1.5,3.5 C 14.85,3.1675 28.1833,3.50083 41.5,4.5C 43.1932,5.22833 44.6932,6.22833 46,7.5C 47.0037,10.9926 46.5037,14.1592 44.5,17C 50.7393,17.9615 55.9059,20.7948 60,25.5C 61.8333,31.6667 59.6667,33.8333 53.5,32C 52.3333,30.8333 51.1667,29.6667 50,28.5C 50.6778,34.5544 52.0112,40.5544 54,46.5C 56.8349,47.9164 59.5015,49.583 62,51.5C 62.9997,55.3371 61.4997,57.3371 57.5,57.5C 49.9723,56.8013 45.4723,52.8013 44,45.5C 42.2192,50.8463 40.0525,56.013 37.5,61C 35.5,61.6667 33.5,61.6667 31.5,61C 30.6634,59.9887 30.33,58.8221 30.5,57.5C 20.8333,57.5 11.1667,57.5 1.5,57.5C 1.5,39.5 1.5,21.5 1.5,3.5 Z M 4.5,5.5 C 15.1719,5.3335 25.8385,5.50016 36.5,6C 33.6169,10.2685 33.9502,14.2685 37.5,18C 33.0153,19.4766 29.3486,22.1433 26.5,26C 20.3635,25.1231 18.3635,27.4564 20.5,33C 24.1667,33.6667 27.8333,33.6667 31.5,33C 32.9308,32.5348 34.0975,31.7014 35,30.5C 35.5,33 36,35.5 36.5,38C 35.0839,43.9175 33.0839,49.5841 30.5,55C 21.5883,55.8163 12.755,55.6497 4,54.5C 3.18277,38.0926 3.34944,21.7593 4.5,5.5 Z M 38.5,8.5 C 43.1585,8.01463 44.4919,9.84796 42.5,14C 37.7282,14.8104 36.3948,12.9771 38.5,8.5 Z M 38.5,20.5 C 45.8538,19.7834 52.0205,22.1168 57,27.5C 57.6877,28.3317 57.521,28.9984 56.5,29.5C 55.0186,28.5197 53.6853,27.353 52.5,26C 50.5273,25.5045 48.5273,25.3379 46.5,25.5C 47.4202,33.268 48.9202,40.9347 51,48.5C 54.0887,49.9596 56.9221,51.793 59.5,54C 51.0956,53.5961 46.5956,49.0961 46,40.5C 45.4387,39.9781 44.772,39.6448 44,39.5C 40.736,45.7971 37.5693,52.1304 34.5,58.5C 34.1667,58 33.8333,57.5 33.5,57C 35.906,51.1153 37.906,45.1153 39.5,39C 38.6368,34.5196 37.9701,30.0196 37.5,25.5C 36.448,25.3505 35.448,25.5172 34.5,26C 31.3824,30.5958 27.3824,31.9292 22.5,30C 24.6234,28.8063 26.9568,28.1397 29.5,28C 32.1293,24.8543 35.1293,22.3543 38.5,20.5 Z"/></g>
<g><path style="opacity:0.883" fill="#fefffe" d="M 6.5,49.5 C 7.58617,49.62 8.25284,50.2867 8.5,51.5C 8.16667,52.1667 7.83333,52.8333 7.5,53.5C 6.57131,52.3112 6.23798,50.9778 6.5,49.5 Z"/></g>
<g><path style="opacity:0.883" fill="#fefffe" d="M 11.5,49.5 C 12.5862,49.62 13.2528,50.2867 13.5,51.5C 13.1667,52.1667 12.8333,52.8333 12.5,53.5C 11.5713,52.3112 11.238,50.9778 11.5,49.5 Z"/></g>
<g><path style="opacity:0.883" fill="#fefffe" d="M 16.5,49.5 C 17.5862,49.62 18.2528,50.2867 18.5,51.5C 18.1667,52.1667 17.8333,52.8333 17.5,53.5C 16.5713,52.3112 16.238,50.9778 16.5,49.5 Z"/></g>
<g><path style="opacity:0.883" fill="#fefffe" d="M 21.5,49.5 C 22.5862,49.62 23.2528,50.2867 23.5,51.5C 23.1667,52.1667 22.8333,52.8333 22.5,53.5C 21.5713,52.3112 21.238,50.9778 21.5,49.5 Z"/></g>
<g><path style="opacity:0.883" fill="#fefffe" d="M 26.5,49.5 C 27.5862,49.62 28.2528,50.2867 28.5,51.5C 28.1667,52.1667 27.8333,52.8333 27.5,53.5C 26.5713,52.3112 26.238,50.9778 26.5,49.5 Z"/></g>
</svg>
