<?xml version="1.0" encoding="UTF-8"?>
<!DOCTYPE svg PUBLIC "-//W3C//DTD SVG 1.1//EN" "http://www.w3.org/Graphics/SVG/1.1/DTD/svg11.dtd">
<svg xmlns="http://www.w3.org/2000/svg" version="1.1" width="64px" height="64px" style="shape-rendering:geometricPrecision; text-rendering:geometricPrecision; image-rendering:optimizeQuality; fill-rule:evenodd; clip-rule:evenodd" xmlns:xlink="http://www.w3.org/1999/xlink">
<g><path style="opacity:0.63" fill="#fefffe" d="M 30.5,47.5 C 24.9254,43.4325 19.7587,38.7659 15,33.5C 14.3333,32.1667 14.3333,30.8333 15,29.5C 23.5,21 32,12.5 40.5,4C 43.7894,3.2536 46.2894,4.42027 48,7.5C 48.6347,9.63545 48.3014,11.6354 47,13.5C 40.9851,19.3479 35.1518,25.3479 29.5,31.5C 35.1518,37.6521 40.9851,43.6521 47,49.5C 49.5025,54.5267 48.0025,57.86 42.5,59.5C 40.2723,58.7814 38.439,57.448 37,55.5C 36.4372,54.2752 36.7705,53.2752 38,52.5C 39.3513,54.019 40.8513,55.3523 42.5,56.5C 44.4753,55.7248 45.3087,54.3914 45,52.5C 37.9853,45.6523 31.152,38.6523 24.5,31.5C 28.9848,26.5148 33.6515,21.6814 38.5,17C 37.3333,15.8333 36.1667,14.6667 35,13.5C 28.9851,19.3479 23.1518,25.3479 17.5,31.5C 21.4846,35.9851 25.6513,40.3184 30,44.5C 30.4828,45.448 30.6495,46.448 30.5,47.5 Z M 41.5,6.5 C 45.9047,7.62545 46.4047,9.62545 43,12.5C 42.5604,10.9238 41.727,9.59042 40.5,8.5C 40.8627,7.81654 41.1961,7.14987 41.5,6.5 Z M 37.5,10.5 C 38.9616,11.4577 40.2949,12.6244 41.5,14C 41,14.5 40.5,15 40,15.5C 38.9055,13.9221 38.0722,12.2554 37.5,10.5 Z"/></g>
<g><path style="opacity:0.581" fill="#fefffe" d="M 30.5,47.5 C 32.9032,47.393 34.7365,48.393 36,50.5C 36.5628,51.7248 36.2295,52.7248 35,53.5C 32.8733,51.8863 31.3733,49.8863 30.5,47.5 Z"/></g>
</svg>
