<?xml version="1.0" encoding="UTF-8"?>
<!DOCTYPE svg PUBLIC "-//W3C//DTD SVG 1.1//EN" "http://www.w3.org/Graphics/SVG/1.1/DTD/svg11.dtd">
<svg xmlns="http://www.w3.org/2000/svg" version="1.1" width="64px" height="64px" style="shape-rendering:geometricPrecision; text-rendering:geometricPrecision; image-rendering:optimizeQuality; fill-rule:evenodd; clip-rule:evenodd" xmlns:xlink="http://www.w3.org/1999/xlink">
<g><path style="opacity:0.978" fill="#25dd21" d="M 8.5,3.5 C 23.5,3.5 38.5,3.5 53.5,3.5C 54.0033,22.2467 53.3366,40.9134 51.5,59.5C 36.9215,59.8237 22.4215,59.4904 8,58.5C 7.18098,40.0932 7.34764,21.7598 8.5,3.5 Z M 11.5,5.5 C 24.7461,5.17727 37.9128,5.5106 51,6.5C 51.6667,21.1667 51.6667,35.8333 51,50.5C 40.5821,51.4866 30.0821,51.8199 19.5,51.5C 18.8333,3.5 18.1667,3.5 17.5,51.5C 14.8333,51.5 12.1667,51.5 9.5,51.5C 9.33342,36.8295 9.50009,22.1629 10,7.5C 10.7172,6.9558 11.2172,6.28913 11.5,5.5 Z M 35.5,21.5 C 36.4682,23.6074 36.8016,25.9407 36.5,28.5C 38.5,28.5 40.5,28.5 42.5,28.5C 44.0242,26.4502 44.1909,30.1168 43,39.5C 36.2904,42.9791 31.2904,41.3124 28,34.5C 27.3333,33.1667 27.3333,31.8333 28,30.5C 29.0999,35.4742 31.9332,37.1408 36.5,35.5C 35.6533,34.1552 34.4866,33.1552 33,32.5C 32.51,31.2068 32.3433,29.8734 32.5,28.5C 33.5,28.5 34.5,28.5 35.5,28.5C 35.5,26.1667 35.5,23.8333 35.5,21.5 Z M 11.5,53.5 C 24.1667,53.5 36.8333,53.5 49.5,53.5C 49.67,54.8221 49.3366,55.9887 48.5,57C 36.1667,57.6667 23.8333,57.6667 11.5,57C 10.3157,55.8545 10.3157,54.6879 11.5,53.5 Z"/></g>
<g><path style="opacity:0.883" fill="#24de20" d="M 11.5,7.5 C 12.9778,7.23798 14.3112,7.57131 15.5,8.5C 14.8333,8.83333 14.1667,9.16667 13.5,9.5C 12.2867,9.25284 11.62,8.58617 11.5,7.5 Z"/></g>
<g><path style="opacity:0.922" fill="#24de20" d="M 17.5,7.5 C 18.6935,7.97041 19.3601,8.97041 19.5,10.5C 19.1667,11.5 18.8333,12.5 18.5,13.5C 17.5344,11.604 17.2011,9.60395 17.5,7.5 Z"/></g>
<g><path style="opacity:0.883" fill="#24de20" d="M 11.5,12.5 C 12.9778,12.238 14.3112,12.5713 15.5,13.5C 14.8333,13.8333 14.1667,14.1667 13.5,14.5C 12.2867,14.2528 11.62,13.5862 11.5,12.5 Z"/></g>
<g><path style="opacity:0.776" fill="#24dd20" d="M 34.5,13.5 C 39.269,14.2604 43.1024,16.5937 46,20.5C 46.6667,27.1667 46.6667,33.8333 46,40.5C 38.7571,46.2291 32.0904,45.5624 26,38.5C 24.7101,34.2695 24.2101,29.9362 24.5,25.5C 26.1439,25.2865 27.6439,25.6198 29,26.5C 29.3333,23.1667 29.6667,19.8333 30,16.5C 31.8778,15.9473 33.3778,14.9473 34.5,13.5 Z M 35.5,21.5 C 35.5,23.8333 35.5,26.1667 35.5,28.5C 34.5,28.5 33.5,28.5 32.5,28.5C 32.3433,29.8734 32.51,31.2068 33,32.5C 34.4866,33.1552 35.6533,34.1552 36.5,35.5C 31.9332,37.1408 29.0999,35.4742 28,30.5C 27.3333,31.8333 27.3333,33.1667 28,34.5C 31.2904,41.3124 36.2904,42.9791 43,39.5C 44.1909,30.1168 44.0242,26.4502 42.5,28.5C 40.5,28.5 38.5,28.5 36.5,28.5C 36.8016,25.9407 36.4682,23.6074 35.5,21.5 Z"/></g>
<g><path style="opacity:0.883" fill="#24de20" d="M 11.5,17.5 C 12.9778,17.238 14.3112,17.5713 15.5,18.5C 14.8333,18.8333 14.1667,19.1667 13.5,19.5C 12.2867,19.2528 11.62,18.5862 11.5,17.5 Z"/></g>
<g><path style="opacity:0.883" fill="#24de20" d="M 11.5,22.5 C 12.9778,22.238 14.3112,22.5713 15.5,23.5C 14.8333,23.8333 14.1667,24.1667 13.5,24.5C 12.2867,24.2528 11.62,23.5862 11.5,22.5 Z"/></g>
<g><path style="opacity:0.883" fill="#24de20" d="M 11.5,27.5 C 12.9778,27.238 14.3112,27.5713 15.5,28.5C 14.8333,28.8333 14.1667,29.1667 13.5,29.5C 12.2867,29.2528 11.62,28.5862 11.5,27.5 Z"/></g>
<g><path style="opacity:0.883" fill="#24de20" d="M 11.5,32.5 C 12.9778,32.238 14.3112,32.5713 15.5,33.5C 14.8333,33.8333 14.1667,34.1667 13.5,34.5C 12.2867,34.2528 11.62,33.5862 11.5,32.5 Z"/></g>
<g><path style="opacity:0.883" fill="#24de20" d="M 11.5,37.5 C 12.9778,37.238 14.3112,37.5713 15.5,38.5C 14.8333,38.8333 14.1667,39.1667 13.5,39.5C 12.2867,39.2528 11.62,38.5862 11.5,37.5 Z"/></g>
<g><path style="opacity:0.883" fill="#24de20" d="M 11.5,42.5 C 12.9778,42.238 14.3112,42.5713 15.5,43.5C 14.8333,43.8333 14.1667,44.1667 13.5,44.5C 12.2867,44.2528 11.62,43.5862 11.5,42.5 Z"/></g>
<g><path style="opacity:0.883" fill="#24de20" d="M 11.5,47.5 C 12.9778,47.238 14.3112,47.5713 15.5,48.5C 14.8333,48.8333 14.1667,49.1667 13.5,49.5C 12.2867,49.2528 11.62,48.5862 11.5,47.5 Z"/></g>
</svg>
