<?xml version="1.0" encoding="UTF-8"?>
<!DOCTYPE svg PUBLIC "-//W3C//DTD SVG 1.1//EN" "http://www.w3.org/Graphics/SVG/1.1/DTD/svg11.dtd">
<svg xmlns="http://www.w3.org/2000/svg" version="1.1" width="64px" height="64px" style="shape-rendering:geometricPrecision; text-rendering:geometricPrecision; image-rendering:optimizeQuality; fill-rule:evenodd; clip-rule:evenodd" xmlns:xlink="http://www.w3.org/1999/xlink">
<g><path style="opacity:0.925" fill="#24de20" d="M 28.5,5.5 C 29.8734,5.34332 31.2068,5.50999 32.5,6C 41.2098,13.7118 50.2098,21.0452 59.5,28C 60.3366,29.0113 60.67,30.1779 60.5,31.5C 58.6096,31.7035 57.1096,31.0368 56,29.5C 55.5003,37.4931 55.3336,45.4931 55.5,53.5C 56.9778,53.238 58.3112,53.5713 59.5,54.5C 40.1667,55.8333 20.8333,55.8333 1.5,54.5C 2.68884,53.5713 4.02218,53.238 5.5,53.5C 5.66638,45.4931 5.49971,37.4931 5,29.5C 3.89037,31.0368 2.39037,31.7035 0.5,31.5C 3.00886,27.1511 6.50886,23.4845 11,20.5C 11.1725,16.1289 11.6725,11.7956 12.5,7.5C 13.3253,11.1224 13.8253,14.789 14,18.5C 15.0432,16.2994 15.8765,13.9661 16.5,11.5C 17.2508,12.376 17.7508,13.376 18,14.5C 21.6919,11.6352 25.1919,8.63517 28.5,5.5 Z M 28.5,9.5 C 29.8734,9.34332 31.2068,9.50999 32.5,10C 39.4263,15.7148 46.2597,21.5482 53,27.5C 53.4994,32.8229 53.666,38.1563 53.5,43.5C 48.1667,43.5 42.8333,43.5 37.5,43.5C 37.5,40.1667 37.5,36.8333 37.5,33.5C 32.8333,33.5 28.1667,33.5 23.5,33.5C 23.5,36.8333 23.5,40.1667 23.5,43.5C 18.1667,43.5 12.8333,43.5 7.5,43.5C 7.33398,38.1563 7.50065,32.8229 8,27.5C 14.9992,21.6003 21.8326,15.6003 28.5,9.5 Z M 29.5,19.5 C 34.1972,20.8743 34.5305,22.8743 30.5,25.5C 27.025,23.9158 26.6917,21.9158 29.5,19.5 Z M 25.5,35.5 C 28.8333,35.5 32.1667,35.5 35.5,35.5C 35.5,41.1667 35.5,46.8333 35.5,52.5C 32.1667,52.5 28.8333,52.5 25.5,52.5C 25.5,46.8333 25.5,41.1667 25.5,35.5 Z M 7.5,45.5 C 12.8333,45.5 18.1667,45.5 23.5,45.5C 23.5,48.1667 23.5,50.8333 23.5,53.5C 18.1667,53.5 12.8333,53.5 7.5,53.5C 7.5,50.8333 7.5,48.1667 7.5,45.5 Z M 37.5,45.5 C 42.8333,45.5 48.1667,45.5 53.5,45.5C 53.5,48.1667 53.5,50.8333 53.5,53.5C 48.1667,53.5 42.8333,53.5 37.5,53.5C 37.5,50.8333 37.5,48.1667 37.5,45.5 Z"/></g>
<g><path style="opacity:0.769" fill="#24dd20" d="M 27.5,17.5 C 35.4863,16.998 37.4863,20.1647 33.5,27C 25.424,27.8047 23.424,24.638 27.5,17.5 Z M 29.5,19.5 C 26.6917,21.9158 27.025,23.9158 30.5,25.5C 34.5305,22.8743 34.1972,20.8743 29.5,19.5 Z"/></g>
<g><path style="opacity:0.883" fill="#24de20" d="M 31.5,42.5 C 32.5862,42.62 33.2528,43.2867 33.5,44.5C 33.1667,45.1667 32.8333,45.8333 32.5,46.5C 31.5713,45.3112 31.238,43.9778 31.5,42.5 Z"/></g>
<g><path style="opacity:0.883" fill="#24de20" d="M 9.5,47.5 C 10.5862,47.62 11.2528,48.2867 11.5,49.5C 11.1667,50.1667 10.8333,50.8333 10.5,51.5C 9.57131,50.3112 9.23798,48.9778 9.5,47.5 Z"/></g>
<g><path style="opacity:0.883" fill="#24de20" d="M 14.5,47.5 C 15.5862,47.62 16.2528,48.2867 16.5,49.5C 16.1667,50.1667 15.8333,50.8333 15.5,51.5C 14.5713,50.3112 14.238,48.9778 14.5,47.5 Z"/></g>
<g><path style="opacity:0.883" fill="#24de20" d="M 19.5,47.5 C 20.5862,47.62 21.2528,48.2867 21.5,49.5C 21.1667,50.1667 20.8333,50.8333 20.5,51.5C 19.5713,50.3112 19.238,48.9778 19.5,47.5 Z"/></g>
<g><path style="opacity:0.883" fill="#24de20" d="M 39.5,47.5 C 40.5862,47.62 41.2528,48.2867 41.5,49.5C 41.1667,50.1667 40.8333,50.8333 40.5,51.5C 39.5713,50.3112 39.238,48.9778 39.5,47.5 Z"/></g>
<g><path style="opacity:0.883" fill="#24de20" d="M 44.5,47.5 C 45.5862,47.62 46.2528,48.2867 46.5,49.5C 46.1667,50.1667 45.8333,50.8333 45.5,51.5C 44.5713,50.3112 44.238,48.9778 44.5,47.5 Z"/></g>
<g><path style="opacity:0.883" fill="#24de20" d="M 49.5,47.5 C 50.5862,47.62 51.2528,48.2867 51.5,49.5C 51.1667,50.1667 50.8333,50.8333 50.5,51.5C 49.5713,50.3112 49.238,48.9778 49.5,47.5 Z"/></g>
</svg>
