<?xml version="1.0" encoding="UTF-8"?>
<!DOCTYPE svg PUBLIC "-//W3C//DTD SVG 1.1//EN" "http://www.w3.org/Graphics/SVG/1.1/DTD/svg11.dtd">
<svg xmlns="http://www.w3.org/2000/svg" version="1.1" width="64px" height="64px" style="shape-rendering:geometricPrecision; text-rendering:geometricPrecision; image-rendering:optimizeQuality; fill-rule:evenodd; clip-rule:evenodd" xmlns:xlink="http://www.w3.org/1999/xlink">
<g><path style="opacity:0.632" fill="#fefffe" d="M 63.5,22.5 C 63.5,26.8333 63.5,31.1667 63.5,35.5C 55.6468,50.6775 43.1468,57.0109 26,54.5C 22.0673,60.0111 16.9007,62.3444 10.5,61.5C 12.8836,58.0533 13.5502,54.3866 12.5,50.5C 6.73053,47.0676 2.3972,42.4009 -0.5,36.5C -0.5,31.8333 -0.5,27.1667 -0.5,22.5C 6.01,9.56424 16.6767,3.23091 31.5,3.5C 46.3233,3.23091 56.99,9.56424 63.5,22.5 Z M 24.5,6.5 C 37.2712,4.72756 48.1045,8.39423 57,17.5C 63.2704,29.1806 61.1037,39.0139 50.5,47C 42.0256,51.7622 33.0256,53.4289 23.5,52C 21.2953,54.5402 18.7953,56.7068 16,58.5C 16.653,55.1897 16.4863,51.8564 15.5,48.5C 2.34386,41.1997 -0.822808,30.8664 6,17.5C 11.1007,11.8729 17.2673,8.20623 24.5,6.5 Z"/></g>
<g><path style="opacity:0.633" fill="#fefffe" d="M 23.5,9.5 C 30.3209,9.00823 36.9876,9.67489 43.5,11.5C 44.3857,12.325 44.719,13.325 44.5,14.5C 35.2696,11.3978 26.2696,11.8978 17.5,16C 10.6263,20.2555 7.95968,26.4222 9.5,34.5C 8.5,34.5 7.5,34.5 6.5,34.5C 5.45135,21.5559 11.118,13.2226 23.5,9.5 Z"/></g>
<g><path style="opacity:0.582" fill="#fefffe" d="M 46.5,14.5 C 50.2349,14.5458 51.5683,16.2125 50.5,19.5C 48.0693,18.6399 46.736,16.9732 46.5,14.5 Z"/></g>
<g><path style="opacity:0.766" fill="#fefffe" d="M 31.5,17.5 C 32.8333,17.5 34.1667,17.5 35.5,17.5C 35.5,18.8333 35.5,20.1667 35.5,21.5C 34.1667,21.5 32.8333,21.5 31.5,21.5C 31.5,20.1667 31.5,18.8333 31.5,17.5 Z"/></g>
<g><path style="opacity:0.627" fill="#fefffe" d="M 52.5,19.5 C 55.9045,21.808 57.2379,25.1414 56.5,29.5C 54.9314,41.0689 48.2647,47.7356 36.5,49.5C 36.281,48.325 36.6143,47.325 37.5,46.5C 50.9047,42.8159 55.5714,34.4825 51.5,21.5C 51.8627,20.8165 52.1961,20.1499 52.5,19.5 Z"/></g>
<g><path style="opacity:0.781" fill="#fefffe" d="M 29.5,23.5 C 31.604,23.2011 33.604,23.5344 35.5,24.5C 33.6556,27.5326 32.6556,30.8659 32.5,34.5C 32.7896,36.0441 33.4563,37.3774 34.5,38.5C 31.8333,39.8333 29.1667,39.8333 26.5,38.5C 27.325,37.6143 28.325,37.281 29.5,37.5C 30.4034,32.7896 30.4034,28.1229 29.5,23.5 Z"/></g>
<g><path style="opacity:0.543" fill="#fefffe" d="M 11.5,35.5 C 13.2252,35.8425 13.7252,36.8425 13,38.5C 11.9887,39.3366 10.8221,39.67 9.5,39.5C 9.52709,37.8007 10.1938,36.4674 11.5,35.5 Z"/></g>
<g><path style="opacity:0.541" fill="#fefffe" d="M 15.5,39.5 C 18.0835,41.4191 17.7502,43.0858 14.5,44.5C 13.3482,42.6029 13.6815,40.9362 15.5,39.5 Z"/></g>
<g><path style="opacity:0.439" fill="#fefffe" d="M 19.5,42.5 C 20.9953,42.4148 21.9953,43.0815 22.5,44.5C 21.9234,46.5499 20.5901,47.5499 18.5,47.5C 18.366,45.7085 18.6993,44.0418 19.5,42.5 Z"/></g>
<g><path style="opacity:0.469" fill="#fefffe" d="M 24.5,44.5 C 25.5,44.5 26.5,44.5 27.5,44.5C 28.1546,48.7049 26.8212,49.8715 23.5,48C 24.3366,46.9887 24.67,45.8221 24.5,44.5 Z"/></g>
<g><path style="opacity:0.539" fill="#fefffe" d="M 30.5,44.5 C 31.6491,44.7911 32.3158,45.6244 32.5,47C 31.7062,50.1215 30.7062,50.1215 29.5,47C 29.7432,46.0979 30.0766,45.2646 30.5,44.5 Z"/></g>
</svg>
