<?xml version="1.0" encoding="UTF-8"?>
<!DOCTYPE svg PUBLIC "-//W3C//DTD SVG 1.1//EN" "http://www.w3.org/Graphics/SVG/1.1/DTD/svg11.dtd">
<svg xmlns="http://www.w3.org/2000/svg" version="1.1" width="64px" height="64px" style="shape-rendering:geometricPrecision; text-rendering:geometricPrecision; image-rendering:optimizeQuality; fill-rule:evenodd; clip-rule:evenodd" xmlns:xlink="http://www.w3.org/1999/xlink">
<g><path style="opacity:0.77" fill="#24dd21" d="M 63.5,25.5 C 63.5,30.8333 63.5,36.1667 63.5,41.5C 53.8517,62.3302 38.5184,67.8302 17.5,58C 10.5226,52.8744 6.52256,46.041 5.5,37.5C 3.5,37.5 1.5,37.5 -0.5,37.5C -0.5,34.8333 -0.5,32.1667 -0.5,29.5C 1.5,29.5 3.5,29.5 5.5,29.5C 10.0652,9.86997 22.3985,1.70331 42.5,5C 52.6842,8.68535 59.6842,15.5187 63.5,25.5 Z M 27.5,7.5 C 50.9787,6.14483 61.812,17.1448 60,40.5C 52.1212,58.7977 38.9546,63.9643 20.5,56C 13.8835,51.5465 9.88347,45.3798 8.5,37.5C 14.1764,37.3339 19.8431,37.5006 25.5,38C 24.1982,43.0372 26.1982,45.3706 31.5,45C 35.4241,41.5831 38.7575,37.7497 41.5,33.5C 38.5,28.5 34.5,24.5 29.5,21.5C 25.2292,22.5729 23.8958,25.0729 25.5,29C 19.8431,29.4994 14.1764,29.6661 8.5,29.5C 10.5843,18.4207 16.9176,11.0874 27.5,7.5 Z M 28.5,25.5 C 32.0801,27.4076 35.0801,30.0743 37.5,33.5C 35.1667,36.5 32.5,39.1667 29.5,41.5C 29.1667,41.1667 28.8333,40.8333 28.5,40.5C 29.9501,39.1502 30.6168,37.4835 30.5,35.5C 20.8333,35.5 11.1667,35.5 1.5,35.5C 1.5,34.1667 1.5,32.8333 1.5,31.5C 11.1667,31.5 20.8333,31.5 30.5,31.5C 30.2964,29.3146 29.6298,27.3146 28.5,25.5 Z"/></g>
<g><path style="opacity:0.745" fill="#23de20" d="M 27.5,10.5 C 31.5,10.5 35.5,10.5 39.5,10.5C 39.5,11.5 39.5,12.5 39.5,13.5C 30.8745,11.8789 23.7078,14.5455 18,21.5C 16.5846,23.9608 15.0846,26.2941 13.5,28.5C 12.6919,28.1924 12.0253,27.6924 11.5,27C 14.3521,18.9827 19.6854,13.4827 27.5,10.5 Z"/></g>
<g><path style="opacity:0.739" fill="#25dd21" d="M 40.5,11.5 C 44.4193,10.7464 45.7527,12.0797 44.5,15.5C 43.2638,14.7542 41.9305,14.4208 40.5,14.5C 40.5,13.5 40.5,12.5 40.5,11.5 Z"/></g>
<g><path style="opacity:0.738" fill="#24dd20" d="M 46.5,14.5 C 50.3298,15.4853 53.1631,17.8187 55,21.5C 58.3333,29.5 58.3333,37.5 55,45.5C 53.8088,48.5341 51.6421,50.2007 48.5,50.5C 50.2857,46.9286 52.1191,43.2619 54,39.5C 56.2464,30.6702 53.9131,23.3369 47,17.5C 46.5172,16.552 46.3505,15.552 46.5,14.5 Z"/></g>
<g><path style="opacity:0.758" fill="#24de20" d="M 11.5,38.5 C 12.8221,38.33 13.9887,38.6634 15,39.5C 16.8809,43.2619 18.7143,46.9286 20.5,50.5C 18.6096,50.7035 17.1096,50.0368 16,48.5C 13.682,45.531 12.182,42.1977 11.5,38.5 Z"/></g>
<g><path style="opacity:0.67" fill="#24de21" d="M 23.5,49.5 C 24.675,49.281 25.675,49.6143 26.5,50.5C 23.4105,55.9752 22.4105,55.6419 23.5,49.5 Z"/></g>
<g><path style="opacity:0.784" fill="#22e01f" d="M 42.5,49.5 C 46.2518,49.5007 47.2518,51.1674 45.5,54.5C 43.244,53.5791 42.244,51.9124 42.5,49.5 Z"/></g>
<g><path style="opacity:0.626" fill="#24de21" d="M 28.5,51.5 C 30.256,52.5521 30.9227,54.2188 30.5,56.5C 29.5,56.5 28.5,56.5 27.5,56.5C 27.366,54.7085 27.6993,53.0418 28.5,51.5 Z"/></g>
<g><path style="opacity:0.626" fill="#24de21" d="M 38.5,51.5 C 41.0838,52.0483 42.0838,53.715 41.5,56.5C 40.5,56.5 39.5,56.5 38.5,56.5C 38.5,54.8333 38.5,53.1667 38.5,51.5 Z"/></g>
<g><path style="opacity:0.883" fill="#24de20" d="M 33.5,52.5 C 34.5862,52.62 35.2528,53.2867 35.5,54.5C 35.1667,55.1667 34.8333,55.8333 34.5,56.5C 33.5713,55.3112 33.238,53.9778 33.5,52.5 Z"/></g>
</svg>
