<?xml version="1.0" encoding="UTF-8"?>
<!DOCTYPE svg PUBLIC "-//W3C//DTD SVG 1.1//EN" "http://www.w3.org/Graphics/SVG/1.1/DTD/svg11.dtd">
<svg xmlns="http://www.w3.org/2000/svg" version="1.1" width="64px" height="64px" style="shape-rendering:geometricPrecision; text-rendering:geometricPrecision; image-rendering:optimizeQuality; fill-rule:evenodd; clip-rule:evenodd" xmlns:xlink="http://www.w3.org/1999/xlink">
<g><path style="opacity:0.877" fill="#fefffe" d="M 63.5,29.5 C 63.5,30.8333 63.5,32.1667 63.5,33.5C 59.785,37.2185 55.785,40.5518 51.5,43.5C 47.2292,42.4271 45.8958,39.9271 47.5,36C 46.2068,35.51 44.8734,35.3433 43.5,35.5C 43.5,43.5 43.5,51.5 43.5,59.5C 30.1667,59.5 16.8333,59.5 3.5,59.5C 3.5,40.8333 3.5,22.1667 3.5,3.5C 16.8333,3.5 30.1667,3.5 43.5,3.5C 43.5,11.5 43.5,19.5 43.5,27.5C 44.8734,27.6567 46.2068,27.49 47.5,27C 45.8958,23.0729 47.2292,20.5729 51.5,19.5C 55.785,22.4482 59.785,25.7815 63.5,29.5 Z M 6.5,5.5 C 17.8382,5.33348 29.1716,5.50014 40.5,6C 41.4799,13.0787 41.8132,20.2454 41.5,27.5C 34.1667,27.5 26.8333,27.5 19.5,27.5C 19.5,30.1667 19.5,32.8333 19.5,35.5C 26.8333,35.5 34.1667,35.5 41.5,35.5C 41.8132,42.7546 41.4799,49.9213 40.5,57C 29.1667,57.6667 17.8333,57.6667 6.5,57C 5.17333,39.8334 5.17333,22.6667 6.5,5.5 Z M 50.5,23.5 C 54.0801,25.4076 57.0801,28.0743 59.5,31.5C 57.1667,34.5 54.5,37.1667 51.5,39.5C 51.1667,39.1667 50.8333,38.8333 50.5,38.5C 51.9501,37.1502 52.6168,35.4835 52.5,33.5C 42.1667,33.5 31.8333,33.5 21.5,33.5C 21.5,32.1667 21.5,30.8333 21.5,29.5C 31.8333,29.5 42.1667,29.5 52.5,29.5C 52.2964,27.3146 51.6298,25.3146 50.5,23.5 Z"/></g>
<g><path style="opacity:0.883" fill="#fefffe" d="M 7.5,51.5 C 8.58617,51.62 9.25284,52.2867 9.5,53.5C 9.16667,54.1667 8.83333,54.8333 8.5,55.5C 7.57131,54.3112 7.23798,52.9778 7.5,51.5 Z"/></g>
<g><path style="opacity:0.883" fill="#fefffe" d="M 12.5,51.5 C 13.5862,51.62 14.2528,52.2867 14.5,53.5C 14.1667,54.1667 13.8333,54.8333 13.5,55.5C 12.5713,54.3112 12.238,52.9778 12.5,51.5 Z"/></g>
<g><path style="opacity:0.883" fill="#fefffe" d="M 17.5,51.5 C 18.5862,51.62 19.2528,52.2867 19.5,53.5C 19.1667,54.1667 18.8333,54.8333 18.5,55.5C 17.5713,54.3112 17.238,52.9778 17.5,51.5 Z"/></g>
<g><path style="opacity:0.883" fill="#fefffe" d="M 22.5,51.5 C 23.5862,51.62 24.2528,52.2867 24.5,53.5C 24.1667,54.1667 23.8333,54.8333 23.5,55.5C 22.5713,54.3112 22.238,52.9778 22.5,51.5 Z"/></g>
<g><path style="opacity:0.883" fill="#fefffe" d="M 27.5,51.5 C 28.5862,51.62 29.2528,52.2867 29.5,53.5C 29.1667,54.1667 28.8333,54.8333 28.5,55.5C 27.5713,54.3112 27.238,52.9778 27.5,51.5 Z"/></g>
<g><path style="opacity:0.883" fill="#fefffe" d="M 32.5,51.5 C 33.5862,51.62 34.2528,52.2867 34.5,53.5C 34.1667,54.1667 33.8333,54.8333 33.5,55.5C 32.5713,54.3112 32.238,52.9778 32.5,51.5 Z"/></g>
<g><path style="opacity:0.883" fill="#fefffe" d="M 37.5,51.5 C 38.5862,51.62 39.2528,52.2867 39.5,53.5C 39.1667,54.1667 38.8333,54.8333 38.5,55.5C 37.5713,54.3112 37.238,52.9778 37.5,51.5 Z"/></g>
</svg>
