<?xml version="1.0" encoding="UTF-8"?>
<!DOCTYPE svg PUBLIC "-//W3C//DTD SVG 1.1//EN" "http://www.w3.org/Graphics/SVG/1.1/DTD/svg11.dtd">
<svg xmlns="http://www.w3.org/2000/svg" version="1.1" width="64px" height="64px" style="shape-rendering:geometricPrecision; text-rendering:geometricPrecision; image-rendering:optimizeQuality; fill-rule:evenodd; clip-rule:evenodd" xmlns:xlink="http://www.w3.org/1999/xlink">
<g><path style="opacity:0.997" fill="#24de20" d="M 1.5,8.5 C 21.5,8.5 41.5,8.5 61.5,8.5C 61.5,12.5 61.5,16.5 61.5,20.5C 41.5,20.5 21.5,20.5 1.5,20.5C 1.5,16.5 1.5,12.5 1.5,8.5 Z M 3.5,10.5 C 22.1667,10.5 40.8333,10.5 59.5,10.5C 59.5,13.1667 59.5,15.8333 59.5,18.5C 40.8333,18.5 22.1667,18.5 3.5,18.5C 3.5,15.8333 3.5,13.1667 3.5,10.5 Z"/></g>
<g><path style="opacity:0.997" fill="#24de20" d="M 1.5,25.5 C 21.5,25.5 41.5,25.5 61.5,25.5C 61.5,29.5 61.5,33.5 61.5,37.5C 41.5,37.5 21.5,37.5 1.5,37.5C 1.5,33.5 1.5,29.5 1.5,25.5 Z M 3.5,27.5 C 22.1667,27.5 40.8333,27.5 59.5,27.5C 59.5,30.1667 59.5,32.8333 59.5,35.5C 40.8333,35.5 22.1667,35.5 3.5,35.5C 3.5,32.8333 3.5,30.1667 3.5,27.5 Z"/></g>
<g><path style="opacity:0.997" fill="#24de20" d="M 1.5,42.5 C 21.5,42.5 41.5,42.5 61.5,42.5C 61.5,46.5 61.5,50.5 61.5,54.5C 41.5,54.5 21.5,54.5 1.5,54.5C 1.5,50.5 1.5,46.5 1.5,42.5 Z M 3.5,44.5 C 22.1667,44.5 40.8333,44.5 59.5,44.5C 59.5,47.1667 59.5,49.8333 59.5,52.5C 40.8333,52.5 22.1667,52.5 3.5,52.5C 3.5,49.8333 3.5,47.1667 3.5,44.5 Z"/></g>
<g><path style="opacity:0.883" fill="#24de20" d="M 5.5,46.5 C 6.58617,46.62 7.25284,47.2867 7.5,48.5C 7.16667,49.1667 6.83333,49.8333 6.5,50.5C 5.57131,49.3112 5.23798,47.9778 5.5,46.5 Z"/></g>
<g><path style="opacity:0.883" fill="#24de20" d="M 10.5,46.5 C 11.5862,46.62 12.2528,47.2867 12.5,48.5C 12.1667,49.1667 11.8333,49.8333 11.5,50.5C 10.5713,49.3112 10.238,47.9778 10.5,46.5 Z"/></g>
<g><path style="opacity:0.883" fill="#24de20" d="M 15.5,46.5 C 16.5862,46.62 17.2528,47.2867 17.5,48.5C 17.1667,49.1667 16.8333,49.8333 16.5,50.5C 15.5713,49.3112 15.238,47.9778 15.5,46.5 Z"/></g>
<g><path style="opacity:0.883" fill="#24de20" d="M 20.5,46.5 C 21.5862,46.62 22.2528,47.2867 22.5,48.5C 22.1667,49.1667 21.8333,49.8333 21.5,50.5C 20.5713,49.3112 20.238,47.9778 20.5,46.5 Z"/></g>
<g><path style="opacity:0.883" fill="#24de20" d="M 25.5,46.5 C 26.5862,46.62 27.2528,47.2867 27.5,48.5C 27.1667,49.1667 26.8333,49.8333 26.5,50.5C 25.5713,49.3112 25.238,47.9778 25.5,46.5 Z"/></g>
<g><path style="opacity:0.883" fill="#24de20" d="M 30.5,46.5 C 31.5862,46.62 32.2528,47.2867 32.5,48.5C 32.1667,49.1667 31.8333,49.8333 31.5,50.5C 30.5713,49.3112 30.238,47.9778 30.5,46.5 Z"/></g>
<g><path style="opacity:0.883" fill="#24de20" d="M 35.5,46.5 C 36.5862,46.62 37.2528,47.2867 37.5,48.5C 37.1667,49.1667 36.8333,49.8333 36.5,50.5C 35.5713,49.3112 35.238,47.9778 35.5,46.5 Z"/></g>
<g><path style="opacity:0.883" fill="#24de20" d="M 40.5,46.5 C 41.5862,46.62 42.2528,47.2867 42.5,48.5C 42.1667,49.1667 41.8333,49.8333 41.5,50.5C 40.5713,49.3112 40.238,47.9778 40.5,46.5 Z"/></g>
<g><path style="opacity:0.883" fill="#24de20" d="M 45.5,46.5 C 46.5862,46.62 47.2528,47.2867 47.5,48.5C 47.1667,49.1667 46.8333,49.8333 46.5,50.5C 45.5713,49.3112 45.238,47.9778 45.5,46.5 Z"/></g>
<g><path style="opacity:0.883" fill="#24de20" d="M 50.5,46.5 C 51.5862,46.62 52.2528,47.2867 52.5,48.5C 52.1667,49.1667 51.8333,49.8333 51.5,50.5C 50.5713,49.3112 50.238,47.9778 50.5,46.5 Z"/></g>
<g><path style="opacity:0.883" fill="#24de20" d="M 55.5,46.5 C 56.5862,46.62 57.2528,47.2867 57.5,48.5C 57.1667,49.1667 56.8333,49.8333 56.5,50.5C 55.5713,49.3112 55.238,47.9778 55.5,46.5 Z"/></g>
</svg>
