<?xml version="1.0" encoding="UTF-8"?>
<!DOCTYPE svg PUBLIC "-//W3C//DTD SVG 1.1//EN" "http://www.w3.org/Graphics/SVG/1.1/DTD/svg11.dtd">
<svg xmlns="http://www.w3.org/2000/svg" version="1.1" width="64px" height="64px" style="shape-rendering:geometricPrecision; text-rendering:geometricPrecision; image-rendering:optimizeQuality; fill-rule:evenodd; clip-rule:evenodd" xmlns:xlink="http://www.w3.org/1999/xlink">
<g><path style="opacity:0.985" fill="#25dd21" d="M 5.5,5.5 C 22.8333,5.5 40.1667,5.5 57.5,5.5C 57.5,22.8333 57.5,40.1667 57.5,57.5C 40.1667,57.5 22.8333,57.5 5.5,57.5C 5.5,40.1667 5.5,22.8333 5.5,5.5 Z M 8.5,7.5 C 24.0779,7.17562 39.5779,7.50895 55,8.5C 55.8238,24.0744 55.6571,39.5744 54.5,55C 38.9256,55.8238 23.4256,55.6571 8,54.5C 7.18348,38.7591 7.35014,23.0924 8.5,7.5 Z"/></g>
<g><path style="opacity:0.903" fill="#24dd20" d="M 12.5,12.5 C 16.6424,14.1195 20.1424,16.7862 23,20.5C 23.1858,18.0995 23.6858,15.7662 24.5,13.5C 25.4909,17.4454 25.8242,21.4454 25.5,25.5C 21.4454,25.8242 17.4454,25.4909 13.5,24.5C 15.7662,23.6858 18.0995,23.1858 20.5,23C 16.7862,20.1424 14.1195,16.6424 12.5,12.5 Z"/></g>
<g><path style="opacity:0.903" fill="#24dd20" d="M 47.5,12.5 C 48.5,12.5 49.5,12.5 50.5,12.5C 48.8805,16.6424 46.2138,20.1424 42.5,23C 44.9005,23.1858 47.2338,23.6858 49.5,24.5C 45.5546,25.4909 41.5546,25.8242 37.5,25.5C 37.1758,21.4454 37.5091,17.4454 38.5,13.5C 39.3142,15.7662 39.8142,18.0995 40,20.5C 42.705,17.9638 45.205,15.2971 47.5,12.5 Z"/></g>
<g><path style="opacity:0.878" fill="#24de20" d="M 29.5,27.5 C 30.8333,27.5 32.1667,27.5 33.5,27.5C 33.5,28.8333 33.5,30.1667 33.5,31.5C 32.1667,31.5 30.8333,31.5 29.5,31.5C 29.5,30.1667 29.5,28.8333 29.5,27.5 Z"/></g>
<g><path style="opacity:0.903" fill="#24dd20" d="M 13.5,33.5 C 17.5,33.5 21.5,33.5 25.5,33.5C 25.8242,37.5546 25.4909,41.5546 24.5,45.5C 23.6858,43.2338 23.1858,40.9005 23,38.5C 20.1424,42.2138 16.6424,44.8805 12.5,46.5C 14.1195,42.3576 16.7862,38.8576 20.5,36C 17.6385,36.0302 15.3052,35.1969 13.5,33.5 Z"/></g>
<g><path style="opacity:0.903" fill="#24dd20" d="M 37.5,33.5 C 41.5546,33.1758 45.5546,33.5091 49.5,34.5C 47.2338,35.3142 44.9005,35.8142 42.5,36C 46.2138,38.8576 48.8805,42.3576 50.5,46.5C 46.3576,44.8805 42.8576,42.2138 40,38.5C 39.8142,40.9005 39.3142,43.2338 38.5,45.5C 37.5091,41.5546 37.1758,37.5546 37.5,33.5 Z"/></g>
<g><path style="opacity:0.884" fill="#24de20" d="M 10.5,49.5 C 11.5862,49.62 12.2528,50.2867 12.5,51.5C 12.1667,52.1667 11.8333,52.8333 11.5,53.5C 10.5713,52.3112 10.238,50.9778 10.5,49.5 Z"/></g>
<g><path style="opacity:0.884" fill="#24de20" d="M 15.5,49.5 C 16.5862,49.62 17.2528,50.2867 17.5,51.5C 17.1667,52.1667 16.8333,52.8333 16.5,53.5C 15.5713,52.3112 15.238,50.9778 15.5,49.5 Z"/></g>
<g><path style="opacity:0.884" fill="#24de20" d="M 20.5,49.5 C 21.5862,49.62 22.2528,50.2867 22.5,51.5C 22.1667,52.1667 21.8333,52.8333 21.5,53.5C 20.5713,52.3112 20.238,50.9778 20.5,49.5 Z"/></g>
<g><path style="opacity:0.884" fill="#24de20" d="M 25.5,49.5 C 26.5862,49.62 27.2528,50.2867 27.5,51.5C 27.1667,52.1667 26.8333,52.8333 26.5,53.5C 25.5713,52.3112 25.238,50.9778 25.5,49.5 Z"/></g>
<g><path style="opacity:0.884" fill="#24de20" d="M 30.5,49.5 C 31.5862,49.62 32.2528,50.2867 32.5,51.5C 32.1667,52.1667 31.8333,52.8333 31.5,53.5C 30.5713,52.3112 30.238,50.9778 30.5,49.5 Z"/></g>
<g><path style="opacity:0.884" fill="#24de20" d="M 35.5,49.5 C 36.5862,49.62 37.2528,50.2867 37.5,51.5C 37.1667,52.1667 36.8333,52.8333 36.5,53.5C 35.5713,52.3112 35.238,50.9778 35.5,49.5 Z"/></g>
<g><path style="opacity:0.884" fill="#24de20" d="M 40.5,49.5 C 41.5862,49.62 42.2528,50.2867 42.5,51.5C 42.1667,52.1667 41.8333,52.8333 41.5,53.5C 40.5713,52.3112 40.238,50.9778 40.5,49.5 Z"/></g>
<g><path style="opacity:0.884" fill="#24de20" d="M 45.5,49.5 C 46.5862,49.62 47.2528,50.2867 47.5,51.5C 47.1667,52.1667 46.8333,52.8333 46.5,53.5C 45.5713,52.3112 45.238,50.9778 45.5,49.5 Z"/></g>
<g><path style="opacity:0.884" fill="#24de20" d="M 50.5,49.5 C 51.5862,49.62 52.2528,50.2867 52.5,51.5C 52.1667,52.1667 51.8333,52.8333 51.5,53.5C 50.5713,52.3112 50.238,50.9778 50.5,49.5 Z"/></g>
</svg>
