<?xml version="1.0" encoding="UTF-8"?>
<!DOCTYPE svg PUBLIC "-//W3C//DTD SVG 1.1//EN" "http://www.w3.org/Graphics/SVG/1.1/DTD/svg11.dtd">
<svg xmlns="http://www.w3.org/2000/svg" version="1.1" width="64px" height="64px" style="shape-rendering:geometricPrecision; text-rendering:geometricPrecision; image-rendering:optimizeQuality; fill-rule:evenodd; clip-rule:evenodd" xmlns:xlink="http://www.w3.org/1999/xlink">
<g><path style="opacity:0.738" fill="#fefffe" d="M 28.5,3.5 C 31.1873,3.33591 33.854,3.50258 36.5,4C 40.4135,6.99033 44.2469,10.157 48,13.5C 48.6667,14.8333 49.3333,16.1667 50,17.5C 50.9182,24.5123 51.9182,31.5123 53,38.5C 54.9712,42.6295 57.1379,46.6295 59.5,50.5C 59.3918,51.4419 59.0585,52.2753 58.5,53C 52.1754,53.4995 45.8421,53.6662 39.5,53.5C 39.0348,57.6294 36.7015,59.6294 32.5,59.5C 28.2985,59.6294 25.9652,57.6294 25.5,53.5C 19.1579,53.6662 12.8246,53.4995 6.5,53C 5.94149,52.2753 5.60816,51.4419 5.5,50.5C 7.86211,46.6295 10.0288,42.6295 12,38.5C 13.0818,31.5123 14.0818,24.5123 15,17.5C 17.0317,12.6352 20.5317,9.30185 25.5,7.5C 26.5244,6.14819 27.5244,4.81486 28.5,3.5 Z M 31.5,5.5 C 32.7562,5.46141 33.7562,5.96141 34.5,7C 33.1667,7.66667 31.8333,7.66667 30.5,7C 31.056,6.61742 31.3893,6.11742 31.5,5.5 Z M 29.5,9.5 C 36.2888,8.89978 41.7888,11.2331 46,16.5C 47.8249,24.4264 49.3249,32.4264 50.5,40.5C 38.5,41.8333 26.5,41.8333 14.5,40.5C 15.8285,33.2098 16.9952,25.8764 18,18.5C 20.5678,13.7529 24.4011,10.7529 29.5,9.5 Z M 50.5,42.5 C 51.2674,43.172 51.9341,44.0053 52.5,45C 51.2528,46.4936 51.2528,47.9936 52.5,49.5C 54.5743,47.1723 55.5743,47.8389 55.5,51.5C 40.1667,51.5 24.8333,51.5 9.5,51.5C 9.42571,47.8389 10.4257,47.1723 12.5,49.5C 13.1575,47.563 13.4908,45.7297 13.5,44C 26.0068,43.8308 38.3401,43.3308 50.5,42.5 Z M 28.5,54.5 C 30.9664,53.3659 33.633,53.1993 36.5,54C 33.9848,57.1218 31.3182,57.2884 28.5,54.5 Z"/></g>
<g><path style="opacity:0.581" fill="#fefffe" d="M 32.5,12.5 C 34.8568,12.3367 37.1902,12.5034 39.5,13C 40.3567,13.6891 41.0233,14.5224 41.5,15.5C 39.7156,16.606 37.8822,16.606 36,15.5C 34.0503,15.2926 32.8836,14.2926 32.5,12.5 Z"/></g>
<g><path style="opacity:0.554" fill="#fefffe" d="M 40.5,17.5 C 43.9103,17.3838 45.2436,19.0504 44.5,22.5C 43.5,22.5 42.5,22.5 41.5,22.5C 41.3713,20.7839 41.038,19.1172 40.5,17.5 Z"/></g>
<g><path style="opacity:0.883" fill="#fefffe" d="M 16.5,45.5 C 17.5862,45.62 18.2528,46.2867 18.5,47.5C 18.1667,48.1667 17.8333,48.8333 17.5,49.5C 16.5713,48.3112 16.238,46.9778 16.5,45.5 Z"/></g>
<g><path style="opacity:0.883" fill="#fefffe" d="M 21.5,45.5 C 22.5862,45.62 23.2528,46.2867 23.5,47.5C 23.1667,48.1667 22.8333,48.8333 22.5,49.5C 21.5713,48.3112 21.238,46.9778 21.5,45.5 Z"/></g>
<g><path style="opacity:0.883" fill="#fefffe" d="M 26.5,45.5 C 27.5862,45.62 28.2528,46.2867 28.5,47.5C 28.1667,48.1667 27.8333,48.8333 27.5,49.5C 26.5713,48.3112 26.238,46.9778 26.5,45.5 Z"/></g>
<g><path style="opacity:0.883" fill="#fefffe" d="M 31.5,45.5 C 32.5862,45.62 33.2528,46.2867 33.5,47.5C 33.1667,48.1667 32.8333,48.8333 32.5,49.5C 31.5713,48.3112 31.238,46.9778 31.5,45.5 Z"/></g>
<g><path style="opacity:0.883" fill="#fefffe" d="M 36.5,45.5 C 37.5862,45.62 38.2528,46.2867 38.5,47.5C 38.1667,48.1667 37.8333,48.8333 37.5,49.5C 36.5713,48.3112 36.238,46.9778 36.5,45.5 Z"/></g>
<g><path style="opacity:0.883" fill="#fefffe" d="M 41.5,45.5 C 42.5862,45.62 43.2528,46.2867 43.5,47.5C 43.1667,48.1667 42.8333,48.8333 42.5,49.5C 41.5713,48.3112 41.238,46.9778 41.5,45.5 Z"/></g>
<g><path style="opacity:0.883" fill="#fefffe" d="M 46.5,45.5 C 47.5862,45.62 48.2528,46.2867 48.5,47.5C 48.1667,48.1667 47.8333,48.8333 47.5,49.5C 46.5713,48.3112 46.238,46.9778 46.5,45.5 Z"/></g>
</svg>
