<?xml version="1.0" encoding="UTF-8"?>
<!DOCTYPE svg PUBLIC "-//W3C//DTD SVG 1.1//EN" "http://www.w3.org/Graphics/SVG/1.1/DTD/svg11.dtd">
<svg xmlns="http://www.w3.org/2000/svg" version="1.1" width="64px" height="64px" style="shape-rendering:geometricPrecision; text-rendering:geometricPrecision; image-rendering:optimizeQuality; fill-rule:evenodd; clip-rule:evenodd" xmlns:xlink="http://www.w3.org/1999/xlink">
<g><path style="opacity:0.993" fill="#24de20" d="M 15.5,7.5 C 19.5,7.5 23.5,7.5 27.5,7.5C 27.5,23.5 27.5,39.5 27.5,55.5C 23.5,55.5 19.5,55.5 15.5,55.5C 15.5,39.5 15.5,23.5 15.5,7.5 Z M 17.5,9.5 C 18.2355,10.5923 19.4022,11.5923 21,12.5C 23.2414,12.3199 23.7414,11.4865 22.5,10C 23.448,9.51722 24.448,9.35055 25.5,9.5C 25.5,24.1667 25.5,38.8333 25.5,53.5C 22.8333,53.5 20.1667,53.5 17.5,53.5C 17.5,38.8333 17.5,24.1667 17.5,9.5 Z"/></g>
<g><path style="opacity:0.993" fill="#25de20" d="M 35.5,7.5 C 39.5,7.5 43.5,7.5 47.5,7.5C 47.5,23.5 47.5,39.5 47.5,55.5C 43.5,55.5 39.5,55.5 35.5,55.5C 35.5,39.5 35.5,23.5 35.5,7.5 Z M 37.5,9.5 C 40.1667,9.5 42.8333,9.5 45.5,9.5C 45.5,24.1667 45.5,38.8333 45.5,53.5C 42.8333,53.5 40.1667,53.5 37.5,53.5C 37.5,38.8333 37.5,24.1667 37.5,9.5 Z"/></g>
<g><path style="opacity:0.865" fill="#20e31d" d="M 19.5,14.5 C 21.3464,14.2222 22.6798,14.8888 23.5,16.5C 21.8333,17.8333 20.1667,17.8333 18.5,16.5C 18.8627,15.8165 19.1961,15.1499 19.5,14.5 Z"/></g>
<g><path style="opacity:0.865" fill="#20e31d" d="M 19.5,19.5 C 21.3464,19.2222 22.6798,19.8888 23.5,21.5C 21.8333,22.8333 20.1667,22.8333 18.5,21.5C 18.8627,20.8165 19.1961,20.1499 19.5,19.5 Z"/></g>
<g><path style="opacity:0.865" fill="#20e31d" d="M 19.5,24.5 C 21.3464,24.2222 22.6798,24.8888 23.5,26.5C 21.8333,27.8333 20.1667,27.8333 18.5,26.5C 18.8627,25.8165 19.1961,25.1499 19.5,24.5 Z"/></g>
<g><path style="opacity:0.865" fill="#20e31d" d="M 19.5,29.5 C 21.3464,29.2222 22.6798,29.8888 23.5,31.5C 21.8333,32.8333 20.1667,32.8333 18.5,31.5C 18.8627,30.8165 19.1961,30.1499 19.5,29.5 Z"/></g>
<g><path style="opacity:0.865" fill="#20e31d" d="M 19.5,34.5 C 21.3464,34.2222 22.6798,34.8888 23.5,36.5C 21.8333,37.8333 20.1667,37.8333 18.5,36.5C 18.8627,35.8165 19.1961,35.1499 19.5,34.5 Z"/></g>
<g><path style="opacity:0.865" fill="#20e31d" d="M 19.5,39.5 C 21.3464,39.2222 22.6798,39.8888 23.5,41.5C 21.8333,42.8333 20.1667,42.8333 18.5,41.5C 18.8627,40.8165 19.1961,40.1499 19.5,39.5 Z"/></g>
<g><path style="opacity:0.865" fill="#20e31d" d="M 19.5,44.5 C 21.3464,44.2222 22.6798,44.8888 23.5,46.5C 21.8333,47.8333 20.1667,47.8333 18.5,46.5C 18.8627,45.8165 19.1961,45.1499 19.5,44.5 Z"/></g>
<g><path style="opacity:0.865" fill="#20e31d" d="M 19.5,49.5 C 21.3464,49.2222 22.6798,49.8888 23.5,51.5C 21.8333,52.8333 20.1667,52.8333 18.5,51.5C 18.8627,50.8165 19.1961,50.1499 19.5,49.5 Z"/></g>
</svg>
