<?xml version="1.0" encoding="UTF-8"?>
<!DOCTYPE svg PUBLIC "-//W3C//DTD SVG 1.1//EN" "http://www.w3.org/Graphics/SVG/1.1/DTD/svg11.dtd">
<svg xmlns="http://www.w3.org/2000/svg" version="1.1" width="64px" height="64px" style="shape-rendering:geometricPrecision; text-rendering:geometricPrecision; image-rendering:optimizeQuality; fill-rule:evenodd; clip-rule:evenodd" xmlns:xlink="http://www.w3.org/1999/xlink">
<g><path style="opacity:0.769" fill="#25dd21" d="M 22.5,1.5 C 40.3623,-1.15826 52.529,5.84174 59,22.5C 62.1496,40.3747 55.3163,52.5413 38.5,59C 20.6253,62.1496 8.45866,55.3163 2,38.5C -1.02304,20.535 5.81029,8.20168 22.5,1.5 Z M 23.5,4.5 C 46.9787,3.14483 57.812,14.1448 56,37.5C 48.1212,55.7977 34.9546,60.9643 16.5,53C 3.89526,43.2277 1.06192,31.061 8,16.5C 12.0197,10.9194 17.1864,6.91937 23.5,4.5 Z M 25.5,22.5 C 30.3153,24.4065 34.6486,27.0731 38.5,30.5C 34.795,33.5256 30.795,36.1923 26.5,38.5C 25.5052,33.2079 25.1718,27.8746 25.5,22.5 Z"/></g>
<g><path style="opacity:0.763" fill="#24de20" d="M 23.5,7.5 C 27.5,7.5 31.5,7.5 35.5,7.5C 35.5,8.5 35.5,9.5 35.5,10.5C 23.933,8.84695 15.7664,13.5136 11,24.5C 10.3333,28.5 10.3333,32.5 11,36.5C 12.8809,40.2619 14.7143,43.9286 16.5,47.5C 12.7263,46.6943 10.2263,44.3609 9,40.5C 4.1064,24.9712 8.93973,13.9712 23.5,7.5 Z"/></g>
<g><path style="opacity:0.74" fill="#24de20" d="M 36.5,8.5 C 40.4193,7.74635 41.7527,9.07969 40.5,12.5C 39.2638,11.7542 37.9305,11.4208 36.5,11.5C 36.5,10.5 36.5,9.5 36.5,8.5 Z"/></g>
<g><path style="opacity:0.738" fill="#24dd20" d="M 42.5,11.5 C 46.3298,12.4853 49.1631,14.8187 51,18.5C 54.3333,26.5 54.3333,34.5 51,42.5C 49.8088,45.5341 47.6421,47.2007 44.5,47.5C 46.2857,43.9286 48.1191,40.2619 50,36.5C 52.2464,27.6702 49.9131,20.3369 43,14.5C 42.5172,13.552 42.3505,12.552 42.5,11.5 Z"/></g>
<g><path style="opacity:0.825" fill="#24de20" d="M 24.5,18.5 C 31.6941,21.2567 38.0274,25.2567 43.5,30.5C 38.2624,35.4657 32.2624,39.4657 25.5,42.5C 24.5224,42.0233 23.6891,41.3567 23,40.5C 22.3333,33.8333 22.3333,27.1667 23,20.5C 23.7172,19.9558 24.2172,19.2891 24.5,18.5 Z M 25.5,22.5 C 25.1718,27.8746 25.5052,33.2079 26.5,38.5C 30.795,36.1923 34.795,33.5256 38.5,30.5C 34.6486,27.0731 30.3153,24.4065 25.5,22.5 Z"/></g>
<g><path style="opacity:0.625" fill="#24de21" d="M 19.5,46.5 C 20.675,46.281 21.675,46.6143 22.5,47.5C 19.4105,52.9752 18.4105,52.6419 19.5,46.5 Z"/></g>
<g><path style="opacity:0.784" fill="#22e01f" d="M 38.5,46.5 C 42.2518,46.5007 43.2518,48.1674 41.5,51.5C 39.244,50.5791 38.244,48.9124 38.5,46.5 Z"/></g>
<g><path style="opacity:0.626" fill="#24de21" d="M 24.5,48.5 C 26.256,49.5521 26.9227,51.2188 26.5,53.5C 25.5,53.5 24.5,53.5 23.5,53.5C 23.366,51.7085 23.6993,50.0418 24.5,48.5 Z"/></g>
<g><path style="opacity:0.626" fill="#24de21" d="M 34.5,48.5 C 37.0838,49.0483 38.0838,50.715 37.5,53.5C 36.5,53.5 35.5,53.5 34.5,53.5C 34.5,51.8333 34.5,50.1667 34.5,48.5 Z"/></g>
<g><path style="opacity:0.884" fill="#24de20" d="M 29.5,49.5 C 30.5862,49.62 31.2528,50.2867 31.5,51.5C 31.1667,52.1667 30.8333,52.8333 30.5,53.5C 29.5713,52.3112 29.238,50.9778 29.5,49.5 Z"/></g>
</svg>
