<?xml version="1.0" encoding="UTF-8"?>
<!DOCTYPE svg PUBLIC "-//W3C//DTD SVG 1.1//EN" "http://www.w3.org/Graphics/SVG/1.1/DTD/svg11.dtd">
<svg xmlns="http://www.w3.org/2000/svg" version="1.1" width="64px" height="64px" style="shape-rendering:geometricPrecision; text-rendering:geometricPrecision; image-rendering:optimizeQuality; fill-rule:evenodd; clip-rule:evenodd" xmlns:xlink="http://www.w3.org/1999/xlink">
<g><path style="opacity:0.63" fill="#fefffe" d="M 23.5,1.5 C 50.645,-0.188799 63.145,12.4779 61,39.5C 54.4911,56.8444 41.9911,64.0111 23.5,61C 6.15561,54.4911 -1.01105,41.9911 2,23.5C 5.35008,12.3177 12.5167,4.98437 23.5,1.5 Z M 24.5,4.5 C 41.053,2.35295 52.2197,9.01962 58,24.5C 60.6371,41.0666 54.1371,52.2333 38.5,58C 21.9334,60.6371 10.7667,54.1371 5,38.5C 2.48799,21.8441 8.98799,10.5108 24.5,4.5 Z M 18.5,18.5 C 23.0878,21.7454 27.4212,25.412 31.5,29.5C 47.5,14.8333 48.1667,15.5 33.5,31.5C 48.1667,47.5 47.5,48.1667 31.5,33.5C 15.5,48.1667 14.8333,47.5 29.5,31.5C 25.412,27.4212 21.7454,23.0878 18.5,18.5 Z"/></g>
<g><path style="opacity:0.572" fill="#fefffe" d="M 47.5,22.5 C 46.1667,23.1667 45.1667,24.1667 44.5,25.5C 42.8333,26.5 41.5,27.8333 40.5,29.5C 38.9153,30.0024 38.4153,31.0024 39,32.5C 42.5494,35.713 45.7161,39.213 48.5,43C 47.1849,46.3438 44.8516,48.0105 41.5,48C 38.318,44.6507 34.9846,41.484 31.5,38.5C 27.803,42.0331 23.9696,45.3665 20,48.5C 15.9333,47.0008 14.4333,44.3341 15.5,40.5C 16.8333,39.8333 17.8333,38.8333 18.5,37.5C 20.1667,36.5 21.5,35.1667 22.5,33.5C 24.0847,32.9976 24.5847,31.9976 24,30.5C 20.4506,27.287 17.2839,23.787 14.5,20C 15.8151,16.6562 18.1484,14.9895 21.5,15C 24.682,18.3493 28.0154,21.516 31.5,24.5C 35.197,20.9669 39.0304,17.6335 43,14.5C 47.0667,15.9992 48.5667,18.6659 47.5,22.5 Z M 18.5,18.5 C 21.7454,23.0878 25.412,27.4212 29.5,31.5C 14.8333,47.5 15.5,48.1667 31.5,33.5C 47.5,48.1667 48.1667,47.5 33.5,31.5C 48.1667,15.5 47.5,14.8333 31.5,29.5C 27.4212,25.412 23.0878,21.7454 18.5,18.5 Z"/></g>
<g><path style="opacity:0.543" fill="#fefffe" d="M 47.5,22.5 C 49.6807,22.2837 51.3474,23.117 52.5,25C 49.7831,26.8392 48.1164,26.0059 47.5,22.5 Z"/></g>
<g><path style="opacity:0.544" fill="#fefffe" d="M 44.5,25.5 C 48.0059,26.1164 48.8392,27.7831 47,30.5C 45.117,29.3474 44.2837,27.6807 44.5,25.5 Z"/></g>
<g><path style="opacity:0.472" fill="#fefffe" d="M 22.5,33.5 C 20.3193,33.7163 18.6526,32.883 17.5,31C 20.6855,28.6757 22.3522,29.5091 22.5,33.5 Z"/></g>
<g><path style="opacity:0.471" fill="#fefffe" d="M 40.5,29.5 C 42.6807,29.2837 44.3474,30.117 45.5,32C 42.3145,34.3243 40.6478,33.4909 40.5,29.5 Z"/></g>
<g><path style="opacity:0.504" fill="#fefffe" d="M 18.5,37.5 C 15.2805,36.9789 14.2805,35.3122 15.5,32.5C 17.756,33.4209 18.756,35.0876 18.5,37.5 Z"/></g>
<g><path style="opacity:0.544" fill="#fefffe" d="M 15.5,40.5 C 13.3193,40.7163 11.6526,39.883 10.5,38C 13.2169,36.1608 14.8836,36.9941 15.5,40.5 Z"/></g>
</svg>
