<?xml version="1.0" encoding="UTF-8"?>
<!DOCTYPE svg PUBLIC "-//W3C//DTD SVG 1.1//EN" "http://www.w3.org/Graphics/SVG/1.1/DTD/svg11.dtd">
<svg xmlns="http://www.w3.org/2000/svg" version="1.1" width="64px" height="64px" style="shape-rendering:geometricPrecision; text-rendering:geometricPrecision; image-rendering:optimizeQuality; fill-rule:evenodd; clip-rule:evenodd" xmlns:xlink="http://www.w3.org/1999/xlink">
<g><path style="opacity:0.772" fill="#25dd21" d="M 22.5,3.5 C 40.3623,0.841739 52.529,7.84174 59,24.5C 62.1496,42.3747 55.3163,54.5413 38.5,61C 20.6253,64.1496 8.45866,57.3163 2,40.5C -1.02304,22.535 5.81029,10.2017 22.5,3.5 Z M 23.5,6.5 C 46.9787,5.14483 57.812,16.1448 56,39.5C 48.1212,57.7977 34.9546,62.9643 16.5,55C 3.89526,45.2277 1.06192,33.061 8,18.5C 12.0197,12.9194 17.1864,8.91937 23.5,6.5 Z"/></g>
<g><path style="opacity:0.894" fill="#25de1f" d="M 29.5,12.5 C 31.604,12.2011 33.604,12.5344 35.5,13.5C 34.3073,15.3837 32.6406,15.8837 30.5,15C 29.7476,14.3292 29.4142,13.4959 29.5,12.5 Z"/></g>
<g><path style="opacity:0.796" fill="#24de20" d="M 36.5,13.5 C 43.3094,14.8048 47.8094,18.8048 50,25.5C 52.5,45.6667 43.6667,54.5 23.5,52C 12.2477,46.6574 8.08107,37.8241 11,25.5C 12.4394,22.3974 14.2728,19.5641 16.5,17C 15.062,16.7811 13.7287,16.2811 12.5,15.5C 15.7683,14.513 19.1016,14.1796 22.5,14.5C 22.8174,17.5719 22.4841,20.5719 21.5,23.5C 20.7022,21.9223 20.2022,20.2556 20,18.5C 13.0311,25.4783 11.6978,33.4783 16,42.5C 23.5645,50.3403 32.0645,51.507 41.5,46C 47.5374,39.8667 49.0374,32.7001 46,24.5C 43.9739,20.9738 41.1405,18.3071 37.5,16.5C 36.6143,15.675 36.281,14.675 36.5,13.5 Z"/></g>
<g><path style="opacity:0.884" fill="#24de20" d="M 29.5,18.5 C 30.5862,18.62 31.2528,19.2867 31.5,20.5C 31.1667,21.1667 30.8333,21.8333 30.5,22.5C 29.5713,21.3112 29.238,19.9778 29.5,18.5 Z"/></g>
<g><path style="opacity:0.679" fill="#23e01f" d="M 35.5,19.5 C 36.5,19.5 37.5,19.5 38.5,19.5C 38.8034,22.5876 37.4701,24.2542 34.5,24.5C 34.6287,22.7839 34.962,21.1172 35.5,19.5 Z"/></g>
<g><path style="opacity:0.6" fill="#22e11e" d="M 40.5,24.5 C 41.5,24.5 42.5,24.5 43.5,24.5C 43.2542,27.4701 41.5876,28.8034 38.5,28.5C 38.5271,26.8007 39.1938,25.4674 40.5,24.5 Z"/></g>
<g><path style="opacity:0.884" fill="#24de20" d="M 16.5,31.5 C 17.9778,31.238 19.3112,31.5713 20.5,32.5C 19.8333,32.8333 19.1667,33.1667 18.5,33.5C 17.2867,33.2528 16.62,32.5862 16.5,31.5 Z"/></g>
<g><path style="opacity:0.884" fill="#24de20" d="M 40.5,31.5 C 41.9778,31.238 43.3112,31.5713 44.5,32.5C 43.8333,32.8333 43.1667,33.1667 42.5,33.5C 41.2867,33.2528 40.62,32.5862 40.5,31.5 Z"/></g>
<g><path style="opacity:0.64" fill="#22e11f" d="M 19.5,36.5 C 20.5,36.5 21.5,36.5 22.5,36.5C 22.2542,39.4701 20.5876,40.8034 17.5,40.5C 17.5271,38.8007 18.1938,37.4674 19.5,36.5 Z"/></g>
<g><path style="opacity:0.681" fill="#23e01f" d="M 23.5,40.5 C 24.5,40.5 25.5,40.5 26.5,40.5C 26.8034,43.5876 25.4701,45.2542 22.5,45.5C 22.6287,43.7839 22.962,42.1172 23.5,40.5 Z"/></g>
<g><path style="opacity:0.884" fill="#24de20" d="M 29.5,42.5 C 30.5862,42.62 31.2528,43.2867 31.5,44.5C 31.1667,45.1667 30.8333,45.8333 30.5,46.5C 29.5713,45.3112 29.238,43.9778 29.5,42.5 Z"/></g>
</svg>
