<?xml version="1.0" encoding="UTF-8"?>
<!DOCTYPE svg PUBLIC "-//W3C//DTD SVG 1.1//EN" "http://www.w3.org/Graphics/SVG/1.1/DTD/svg11.dtd">
<svg xmlns="http://www.w3.org/2000/svg" version="1.1" width="64px" height="64px" style="shape-rendering:geometricPrecision; text-rendering:geometricPrecision; image-rendering:optimizeQuality; fill-rule:evenodd; clip-rule:evenodd" xmlns:xlink="http://www.w3.org/1999/xlink">
<g><path style="opacity:0.752" fill="#25dd21" d="M 17.5,-0.5 C 22.1667,-0.5 26.8333,-0.5 31.5,-0.5C 49.3211,7.78745 53.9878,20.9541 45.5,39C 52.3218,43.6573 58.3218,49.1573 63.5,55.5C 63.5,56.8333 63.5,58.1667 63.5,59.5C 62.5,61.1667 61.1667,62.5 59.5,63.5C 58.1667,63.5 56.8333,63.5 55.5,63.5C 49.1573,58.3218 43.6573,52.3218 39,45.5C 20.9541,53.9878 7.78745,49.3211 -0.5,31.5C -0.5,26.8333 -0.5,22.1667 -0.5,17.5C 2.5,8.5 8.5,2.5 17.5,-0.5 Z M 18.5,2.5 C 38.3125,1.47854 47.4792,10.8119 46,30.5C 38.8762,46.3218 27.3762,50.4885 11.5,43C 1.75494,33.9495 -0.0783954,23.4495 6,11.5C 9.29905,7.1179 13.4657,4.1179 18.5,2.5 Z M 19.5,8.5 C 34.8634,7.24777 41.6967,14.2478 40,29.5C 33.9148,41.1109 25.0815,43.6109 13.5,37C 6.83333,28.6667 6.83333,20.3333 13.5,12C 15.4319,10.5415 17.4319,9.37483 19.5,8.5 Z M 46.5,44.5 C 51.4063,47.8983 55.9063,51.8983 60,56.5C 60.1667,59 59,60.1667 56.5,60C 52.6667,56.1667 48.8333,52.3333 45,48.5C 44.7003,46.9343 45.2003,45.601 46.5,44.5 Z"/></g>
<g><path style="opacity:0.79" fill="#26dc22" d="M 18.5,5.5 C 39.8927,5.06096 47.3927,15.061 41,35.5C 33.2547,43.9187 24.088,45.7521 13.5,41C 5.53502,34.0775 3.36836,25.5775 7,15.5C 9.81781,10.8388 13.6511,7.50549 18.5,5.5 Z M 19.5,8.5 C 17.4319,9.37483 15.4319,10.5415 13.5,12C 6.83333,20.3333 6.83333,28.6667 13.5,37C 25.0815,43.6109 33.9148,41.1109 40,29.5C 41.6967,14.2478 34.8634,7.24777 19.5,8.5 Z"/></g>
<g><path style="opacity:0.841" fill="#23df1f" d="M 18.5,10.5 C 21.5719,10.1826 24.5719,10.5159 27.5,11.5C 23.5209,12.9634 19.5209,14.6301 15.5,16.5C 14.8333,16.1667 14.1667,15.8333 13.5,15.5C 14.8818,13.4514 16.5484,11.7847 18.5,10.5 Z"/></g>
<g><path style="opacity:0.788" fill="#22e11e" d="M 30.5,11.5 C 32.7288,12.0553 34.3954,13.3886 35.5,15.5C 31.3051,16.9601 29.6384,15.6267 30.5,11.5 Z"/></g>
<g><path style="opacity:0.883" fill="#24de20" d="M 9.5,23.5 C 10.9778,23.238 12.3112,23.5713 13.5,24.5C 12.8333,24.8333 12.1667,25.1667 11.5,25.5C 10.2867,25.2528 9.61998,24.5862 9.5,23.5 Z"/></g>
<g><path style="opacity:0.883" fill="#24de20" d="M 35.5,23.5 C 36.9778,23.238 38.3112,23.5713 39.5,24.5C 38.8333,24.8333 38.1667,25.1667 37.5,25.5C 36.2867,25.2528 35.62,24.5862 35.5,23.5 Z"/></g>
<g><path style="opacity:0.651" fill="#23dd20" d="M 11.5,27.5 C 12.5,27.5 13.5,27.5 14.5,27.5C 14.5499,29.5901 13.5499,30.9234 11.5,31.5C 10.3744,30.1916 10.3744,28.8583 11.5,27.5 Z"/></g>
<g><path style="opacity:0.635" fill="#23de1f" d="M 34.5,27.5 C 37.179,27.5246 38.5123,28.858 38.5,31.5C 35.5,31.8333 34.1667,30.5 34.5,27.5 Z"/></g>
<g><path style="opacity:0.62" fill="#24dc21" d="M 14.5,31.5 C 15.5,31.5 16.5,31.5 17.5,31.5C 17.8333,34.5 16.5,35.8333 13.5,35.5C 13.4326,34.0413 13.7659,32.7079 14.5,31.5 Z"/></g>
<g><path style="opacity:0.62" fill="#24dc21" d="M 31.5,31.5 C 34.5,31.1667 35.8333,32.5 35.5,35.5C 32.5,35.8333 31.1667,34.5 31.5,31.5 Z"/></g>
<g><path style="opacity:0.66" fill="#23de1f" d="M 18.5,34.5 C 19.675,34.281 20.675,34.6143 21.5,35.5C 20.9234,37.5499 19.5901,38.5499 17.5,38.5C 17.4326,37.0413 17.7659,35.7079 18.5,34.5 Z"/></g>
<g><path style="opacity:0.596" fill="#23dd20" d="M 27.5,34.5 C 29.5901,34.4501 30.9234,35.4501 31.5,37.5C 28.5812,38.9318 27.2479,37.9318 27.5,34.5 Z"/></g>
<g><path style="opacity:0.883" fill="#24de20" d="M 23.5,35.5 C 24.5862,35.62 25.2528,36.2867 25.5,37.5C 25.1667,38.1667 24.8333,38.8333 24.5,39.5C 23.5713,38.3112 23.238,36.9778 23.5,35.5 Z"/></g>
</svg>
