<?xml version="1.0" encoding="UTF-8"?>
<!DOCTYPE svg PUBLIC "-//W3C//DTD SVG 1.1//EN" "http://www.w3.org/Graphics/SVG/1.1/DTD/svg11.dtd">
<svg xmlns="http://www.w3.org/2000/svg" version="1.1" width="64px" height="64px" style="shape-rendering:geometricPrecision; text-rendering:geometricPrecision; image-rendering:optimizeQuality; fill-rule:evenodd; clip-rule:evenodd" xmlns:xlink="http://www.w3.org/1999/xlink">
<g><path style="opacity:0.775" fill="#24de20" d="M 42.5,-0.5 C 43.5,-0.5 44.5,-0.5 45.5,-0.5C 47.5903,4.6579 49.9237,4.6579 52.5,-0.5C 53.1667,-0.5 53.8333,-0.5 54.5,-0.5C 56.5104,1.02308 56.8437,2.85641 55.5,5C 56.8775,7.44938 58.7108,7.94938 61,6.5C 62.0111,7.05558 62.8444,7.72225 63.5,8.5C 63.5,9.5 63.5,10.5 63.5,11.5C 58.3421,13.5903 58.3421,15.9237 63.5,18.5C 63.5,19.1667 63.5,19.8333 63.5,20.5C 61.9769,22.5104 60.1436,22.8437 58,21.5C 56.3762,23.9033 55.2096,26.4033 54.5,29C 53.5,29.6667 52.5,29.6667 51.5,29C 50.8448,27.5134 49.8448,26.3467 48.5,25.5C 46.8333,26.8333 45.1667,28.1667 43.5,29.5C 39.3589,28.3665 37.8589,30.0332 39,34.5C 40.4907,36.0037 42.324,36.8371 44.5,37C 45.8333,39.3333 45.8333,41.6667 44.5,44C 42.324,44.1629 40.4907,44.9963 39,46.5C 39.3333,49.8333 39.6667,53.1667 40,56.5C 36.8006,59.1295 33.8006,58.7961 31,55.5C 27.9368,57.2845 26.1035,59.9512 25.5,63.5C 23.5,63.5 21.5,63.5 19.5,63.5C 19.0223,61.0829 18.0223,58.9162 16.5,57C 13.1667,57.3333 9.83333,57.6667 6.5,58C 5.19551,57.196 4.52884,56.0293 4.5,54.5C 8.3489,48.1821 6.68223,44.5155 -0.5,43.5C -0.5,41.5 -0.5,39.5 -0.5,37.5C 6.68223,36.4845 8.3489,32.8179 4.5,26.5C 6.90675,21.5129 10.0734,21.1796 14,25.5C 16.9187,23.8421 18.7521,21.3421 19.5,18C 21.7695,17.2419 23.9361,17.4086 26,18.5C 26.3501,23.7098 28.8501,25.3765 33.5,23.5C 34.0512,21.5868 34.2179,19.5868 34,17.5C 35.4866,16.8448 36.6533,15.8448 37.5,14.5C 36.1667,12.8333 34.8333,11.1667 33.5,9.5C 34.6169,6.68669 36.4503,6.02002 39,7.5C 41.4494,6.12253 41.9494,4.28919 40.5,2C 41.0556,0.988944 41.7222,0.155611 42.5,-0.5 Z M 44.5,5.5 C 47.0024,6.77853 49.5024,6.77853 52,5.5C 53.1667,8 55,9.83333 57.5,11C 56.1667,13.3333 56.1667,15.6667 57.5,18C 55,19.1667 53.1667,21 52,23.5C 49.6667,22.1667 47.3333,22.1667 45,23.5C 43.8333,21 42,19.1667 39.5,18C 40.8333,15.6667 40.8333,13.3333 39.5,11C 42.079,9.92432 43.7457,8.09098 44.5,5.5 Z M 47.5,10.5 C 53.532,12.5435 53.8653,15.2102 48.5,18.5C 43.6907,16.2575 43.3574,13.5908 47.5,10.5 Z M 9.5,45.5 C 7.43376,43.1139 4.7671,41.4473 1.5,40.5C 4.7671,39.5527 7.43376,37.8861 9.5,35.5C 11.0183,32.209 10.3516,29.3757 7.5,27C 8,26.5 8.5,26 9,25.5C 12.5775,29.327 16.2442,29.327 20,25.5C 20.8333,23.5 21.6667,21.5 22.5,19.5C 23.3487,25.4062 26.682,28.2396 32.5,28C 33.9308,27.5348 35.0975,26.7014 36,25.5C 36.5,26 37,26.5 37.5,27C 33.673,30.5775 33.673,34.2442 37.5,38C 45.5,39.6667 45.5,41.3333 37.5,43C 33.673,46.7558 33.673,50.4225 37.5,54C 37,54.5 36.5,55 36,55.5C 32.4225,51.673 28.7558,51.673 25,55.5C 24.1667,57.5 23.3333,59.5 22.5,61.5C 21.894,56.3941 19.0607,53.3941 14,52.5C 12.018,52.9903 10.3513,53.9903 9,55.5C 8.5,55 8,54.5 7.5,54C 10.3516,51.6243 11.0183,48.791 9.5,45.5 Z M 37.5,22.5 C 39.0699,21.4407 40.4032,21.9407 41.5,24C 39.9343,24.2997 38.601,23.7997 37.5,22.5 Z M 19.5,36.5 C 26.1584,35.3445 28.1584,37.8445 25.5,44C 18.7496,45.4689 16.7496,42.9689 19.5,36.5 Z"/></g>
<g><path style="opacity:0.804" fill="#24dc21" d="M 44.5,8.5 C 54.4874,7.33194 57.154,11.1653 52.5,20C 42.4338,21.4671 39.7671,17.6338 44.5,8.5 Z M 47.5,10.5 C 43.3574,13.5908 43.6907,16.2575 48.5,18.5C 53.8653,15.2102 53.532,12.5435 47.5,10.5 Z"/></g>
<g><path style="opacity:0.878" fill="#24de20" d="M 46.5,12.5 C 47.8333,12.5 49.1667,12.5 50.5,12.5C 50.5,13.8333 50.5,15.1667 50.5,16.5C 49.1667,16.5 47.8333,16.5 46.5,16.5C 46.5,15.1667 46.5,13.8333 46.5,12.5 Z"/></g>
<g><path style="opacity:0.735" fill="#24dd20" d="M 17.5,28.5 C 20.8333,28.5 24.1667,28.5 27.5,28.5C 27.5,29.5 27.5,30.5 27.5,31.5C 24.1667,31.5 20.8333,31.5 17.5,31.5C 17.5,30.5 17.5,29.5 17.5,28.5 Z"/></g>
<g><path style="opacity:0.74" fill="#22e21e" d="M 28.5,30.5 C 32.2079,30.9567 33.0412,32.6233 31,35.5C 29.117,34.3474 28.2837,32.6807 28.5,30.5 Z"/></g>
<g><path style="opacity:0.811" fill="#25dd21" d="M 16.5,45.5 C 13.5963,36.2372 16.9297,32.4038 26.5,34C 30.5,38.3333 30.5,42.6667 26.5,47C 22.8513,47.963 19.518,47.463 16.5,45.5 Z M 19.5,36.5 C 16.7496,42.9689 18.7496,45.4689 25.5,44C 28.1584,37.8445 26.1584,35.3445 19.5,36.5 Z"/></g>
<g><path style="opacity:0.671" fill="#23e11f" d="M 9.5,35.5 C 12.4602,34.1506 14.1269,35.1506 14.5,38.5C 11.9664,38.7409 10.2998,37.7409 9.5,35.5 Z"/></g>
<g><path style="opacity:0.878" fill="#24de20" d="M 20.5,38.5 C 21.8333,38.5 23.1667,38.5 24.5,38.5C 24.5,39.8333 24.5,41.1667 24.5,42.5C 23.1667,42.5 21.8333,42.5 20.5,42.5C 20.5,41.1667 20.5,39.8333 20.5,38.5 Z"/></g>
<g><path style="opacity:0.832" fill="#23e11e" d="M 11.5,42.5 C 9.0698,41.3467 9.0698,40.3467 11.5,39.5C 12.1667,39.8333 12.8333,40.1667 13.5,40.5C 12.7573,41.1818 12.0906,41.8485 11.5,42.5 Z"/></g>
<g><path style="opacity:0.79" fill="#21e31d" d="M 11.5,42.5 C 12.5,42.5 13.5,42.5 14.5,42.5C 14.5,43.5 14.5,44.5 14.5,45.5C 13.8333,45.5 13.5,45.8333 13.5,46.5C 12.0413,46.5674 10.7079,46.2341 9.5,45.5C 10.1667,44.5 10.8333,43.5 11.5,42.5 Z"/></g>
<g><path style="opacity:0.701" fill="#21e21e" d="M 14.5,45.5 C 15.1667,45.5 15.8333,45.5 16.5,45.5C 16.7254,47.7159 15.8921,49.3826 14,50.5C 12.2317,49.3181 12.0651,47.9848 13.5,46.5C 14.1667,46.5 14.5,46.1667 14.5,45.5 Z"/></g>
</svg>
