<?xml version="1.0" encoding="UTF-8"?>
<!DOCTYPE svg PUBLIC "-//W3C//DTD SVG 1.1//EN" "http://www.w3.org/Graphics/SVG/1.1/DTD/svg11.dtd">
<svg xmlns="http://www.w3.org/2000/svg" version="1.1" width="64px" height="64px" style="shape-rendering:geometricPrecision; text-rendering:geometricPrecision; image-rendering:optimizeQuality; fill-rule:evenodd; clip-rule:evenodd" xmlns:xlink="http://www.w3.org/1999/xlink">
<g><path style="opacity:0.596" fill="#fefffe" d="M 63.5,5.5 C 63.5,8.16667 63.5,10.8333 63.5,13.5C 60.5439,14.7294 59.5439,16.7294 60.5,19.5C 59.6667,21.1667 58.8333,22.8333 58,24.5C 47.4369,35.7324 36.2703,46.2324 24.5,56C 18.8432,57.9414 13.1765,59.7747 7.5,61.5C 6.5,61.1667 5.83333,60.5 5.5,59.5C 7.36186,53.0815 9.52852,46.7482 12,40.5C 21.4698,30.0294 31.3031,19.8628 41.5,10C 40.8333,9.33333 40.1667,9.33333 39.5,10C 34.9852,14.6819 30.3185,19.1819 25.5,23.5C 24.4173,22.635 24.2506,21.635 25,20.5C 29.5,16 34,11.5 38.5,7C 42.2255,6.24009 45.8922,6.40676 49.5,7.5C 53.6625,3.06345 58.3291,2.39678 63.5,5.5 Z M 55.5,6.5 C 59.6772,5.84156 61.1772,7.50822 60,11.5C 57.2041,13.9833 55.0374,13.3166 53.5,9.5C 54.1925,8.48224 54.8592,7.48224 55.5,6.5 Z M 54.5,22.5 C 54.5,21.5 54.5,20.5 54.5,19.5C 51.5,19.1667 50.1667,20.5 50.5,23.5C 51.5,23.5 52.5,23.5 53.5,23.5C 52.7456,25.4459 51.4122,26.2793 49.5,26C 46.3172,22.9845 43.3172,19.8178 40.5,16.5C 41.1882,15.1451 42.1882,14.1451 43.5,13.5C 43.5,14.5 43.5,15.5 43.5,16.5C 46.5,16.8333 47.8333,15.5 47.5,12.5C 46.5,12.5 45.5,12.5 44.5,12.5C 45.2544,10.5541 46.5878,9.72075 48.5,10C 51.6828,13.0155 54.6828,16.1822 57.5,19.5C 56.8118,20.8549 55.8118,21.8549 54.5,22.5 Z M 38.5,20.5 C 41.8123,23.1456 44.8123,26.1456 47.5,29.5C 41.4758,36.7039 34.8091,42.8705 27.5,48C 24.6667,45.1667 21.8333,42.3333 19,39.5C 18.4153,38.0024 18.9153,37.0024 20.5,36.5C 21.2039,38.3442 22.5372,38.8442 24.5,38C 27.7621,35.246 30.4288,32.0794 32.5,28.5C 32.2528,27.2867 31.5862,26.62 30.5,26.5C 31.1667,25.1667 32.1667,24.1667 33.5,23.5C 33.5,24.5 33.5,25.5 33.5,26.5C 37.314,26.3491 38.9807,24.3491 38.5,20.5 Z M 14.5,41.5 C 18.5698,44.0604 22.2365,47.2271 25.5,51C 21.9771,53.4011 18.1437,55.2344 14,56.5C 12.8333,55.3333 11.6667,54.1667 10.5,53C 12.1314,49.2725 13.4648,45.4391 14.5,41.5 Z"/></g>
<g><path style="opacity:0.639" fill="#fefffe" d="M -0.5,49.5 C -0.5,44.8333 -0.5,40.1667 -0.5,35.5C -0.094444,28.1863 2.90556,22.0196 8.5,17C 11.6478,15.3953 14.9811,14.3953 18.5,14C 19.3802,12.6439 19.7135,11.1439 19.5,9.5C 20.5,9.5 21.5,9.5 22.5,9.5C 22.8957,12.0444 22.229,14.2111 20.5,16C 15.4064,17.026 10.9064,19.1927 7,22.5C 5.12495,25.6436 6.29161,27.1436 10.5,27C 13,33.8333 10.8333,36 4,33.5C 1.83597,38.7625 1.33597,44.0958 2.5,49.5C 1.5,49.5 0.5,49.5 -0.5,49.5 Z M 6.5,29.5 C 7.37644,29.3691 8.04311,29.7025 8.5,30.5C 6.19157,31.8734 5.52491,31.5401 6.5,29.5 Z"/></g>
<g><path style="opacity:0.504" fill="#fefffe" d="M 44.5,12.5 C 45.5,12.5 46.5,12.5 47.5,12.5C 47.8333,15.5 46.5,16.8333 43.5,16.5C 43.5,15.5 43.5,14.5 43.5,13.5C 44.1667,13.5 44.5,13.1667 44.5,12.5 Z"/></g>
<g><path style="opacity:0.415" fill="#fefffe" d="M 48.5,15.5 C 52.3793,16.8357 52.3793,18.5023 48.5,20.5C 46.0698,18.9626 46.0698,17.296 48.5,15.5 Z"/></g>
<g><path style="opacity:0.505" fill="#fefffe" d="M 54.5,22.5 C 53.8333,22.5 53.5,22.8333 53.5,23.5C 52.5,23.5 51.5,23.5 50.5,23.5C 50.1667,20.5 51.5,19.1667 54.5,19.5C 54.5,20.5 54.5,21.5 54.5,22.5 Z"/></g>
<g><path style="opacity:0.524" fill="#fefffe" d="M 36.5,20.5 C 37.1667,20.5 37.8333,20.5 38.5,20.5C 38.9807,24.3491 37.314,26.3491 33.5,26.5C 33.5,25.5 33.5,24.5 33.5,23.5C 34.1667,23.5 34.5,23.1667 34.5,22.5C 35.1667,22.5 35.5,22.1667 35.5,21.5C 36.1667,21.5 36.5,21.1667 36.5,20.5 Z"/></g>
<g><path style="opacity:0.529" fill="#fefffe" d="M 30.5,26.5 C 31.5862,26.62 32.2528,27.2867 32.5,28.5C 30.4288,32.0794 27.7621,35.246 24.5,38C 22.5372,38.8442 21.2039,38.3442 20.5,36.5C 21.1667,36.5 21.5,36.1667 21.5,35.5C 22.1667,35.5 22.5,35.1667 22.5,34.5C 23.1667,34.5 23.5,34.1667 23.5,33.5C 24.1667,33.5 24.5,33.1667 24.5,32.5C 25.1667,32.5 25.5,32.1667 25.5,31.5C 26.1667,31.5 26.5,31.1667 26.5,30.5C 27.1667,30.5 27.5,30.1667 27.5,29.5C 28.1667,29.5 28.5,29.1667 28.5,28.5C 29.1667,28.5 29.5,28.1667 29.5,27.5C 30.1667,27.5 30.5,27.1667 30.5,26.5 Z"/></g>
<g><path style="opacity:0.5" fill="#fefffe" d="M 1.5,50.5 C 3.70117,50.8584 5.0345,52.1917 5.5,54.5C 4.48259,57.028 3.31592,57.028 2,54.5C 1.50999,53.2068 1.34332,51.8734 1.5,50.5 Z"/></g>
</svg>
