<?xml version="1.0" encoding="UTF-8"?>
<!DOCTYPE svg PUBLIC "-//W3C//DTD SVG 1.1//EN" "http://www.w3.org/Graphics/SVG/1.1/DTD/svg11.dtd">
<svg xmlns="http://www.w3.org/2000/svg" version="1.1" width="64px" height="64px" style="shape-rendering:geometricPrecision; text-rendering:geometricPrecision; image-rendering:optimizeQuality; fill-rule:evenodd; clip-rule:evenodd" xmlns:xlink="http://www.w3.org/1999/xlink">
<g><path style="opacity:0.862" fill="#24de20" d="M 21.5,5.5 C 26.7677,4.13907 29.4343,6.13907 29.5,11.5C 27.8259,16.178 26.1592,20.8447 24.5,25.5C 36.1714,25.3335 47.8381,25.5001 59.5,26C 60.8333,28.6667 60.8333,31.3333 59.5,34C 54.5111,34.4993 49.5111,34.6659 44.5,34.5C 43.3467,39.1617 43.1801,43.8284 44,48.5C 43.1057,51.7846 41.939,54.9512 40.5,58C 30.1667,58.6667 19.8333,58.6667 9.5,58C 7,56.8333 5.16667,55 4,52.5C 3.33333,44.8333 3.33333,37.1667 4,29.5C 9.5981,21.2933 15.4314,13.2933 21.5,5.5 Z M 22.5,8.5 C 24.6348,8.14696 25.9681,8.98029 26.5,11C 24.0519,16.3847 22.0519,21.8847 20.5,27.5C 32.1714,27.3335 43.8381,27.5001 55.5,28C 58.1667,29.3333 58.1667,30.6667 55.5,32C 49.1406,32.1694 42.8072,32.6694 36.5,33.5C 42.5739,35.6106 42.9072,38.2773 37.5,41.5C 42.9072,44.7227 42.5739,47.3894 36.5,49.5C 37.7515,50.6311 38.7515,51.9644 39.5,53.5C 39.1667,54.1667 38.8333,54.8333 38.5,55.5C 30.8829,56.6334 23.2163,56.8001 15.5,56C 9.66667,55.5 6.5,52.3333 6,46.5C 5.30813,41.1087 5.64147,35.7753 7,30.5C 12.4319,23.2837 17.5986,15.9504 22.5,8.5 Z"/></g>
<g><path style="opacity:0.883" fill="#24dd21" d="M 9.5,30.5 C 10.9778,30.238 12.3112,30.5713 13.5,31.5C 12.8333,31.8333 12.1667,32.1667 11.5,32.5C 10.2867,32.2528 9.61998,31.5862 9.5,30.5 Z"/></g>
<g><path style="opacity:0.883" fill="#24dd20" d="M 9.5,35.5 C 10.9778,35.238 12.3112,35.5713 13.5,36.5C 12.8333,36.8333 12.1667,37.1667 11.5,37.5C 10.2867,37.2528 9.61998,36.5862 9.5,35.5 Z"/></g>
<g><path style="opacity:0.883" fill="#24de20" d="M 9.5,40.5 C 10.9778,40.238 12.3112,40.5713 13.5,41.5C 12.8333,41.8333 12.1667,42.1667 11.5,42.5C 10.2867,42.2528 9.61998,41.5862 9.5,40.5 Z"/></g>
<g><path style="opacity:0.883" fill="#24dd20" d="M 9.5,45.5 C 10.9778,45.238 12.3112,45.5713 13.5,46.5C 12.8333,46.8333 12.1667,47.1667 11.5,47.5C 10.2867,47.2528 9.61998,46.5862 9.5,45.5 Z"/></g>
<g><path style="opacity:0.877" fill="#24dd21" d="M 9.5,50.5 C 10.9778,50.238 12.3112,50.5713 13.5,51.5C 12.8333,51.8333 12.1667,52.1667 11.5,52.5C 10.2867,52.2528 9.61998,51.5862 9.5,50.5 Z"/></g>
</svg>
