<?xml version="1.0" encoding="UTF-8"?>
<!DOCTYPE svg PUBLIC "-//W3C//DTD SVG 1.1//EN" "http://www.w3.org/Graphics/SVG/1.1/DTD/svg11.dtd">
<svg xmlns="http://www.w3.org/2000/svg" version="1.1" width="80px" height="80px" style="shape-rendering:geometricPrecision; text-rendering:geometricPrecision; image-rendering:optimizeQuality; fill-rule:evenodd; clip-rule:evenodd" xmlns:xlink="http://www.w3.org/1999/xlink">
<g><path style="opacity:0.646" fill="#000000" d="M 14.5,10.5 C 20.827,11.6531 27.1603,11.8198 33.5,11C 38.6667,13.5 42.5,17.3333 45,22.5C 46.3076,20.3586 47.8076,18.3586 49.5,16.5C 48.2532,14.9579 48.2532,13.4579 49.5,12C 52.4228,10.3678 55.4228,10.2012 58.5,11.5C 56.6721,12.7952 54.6721,13.7952 52.5,14.5C 55.9689,14.4256 59.4689,14.7589 63,15.5C 63.1667,15.8333 63.3333,16.1667 63.5,16.5C 62.2713,17.2811 60.938,17.7811 59.5,18C 64.4916,21.1569 66.3249,25.6569 65,31.5C 61.7609,33.352 58.2609,34.352 54.5,34.5C 55.958,40.6858 53.6247,44.0191 47.5,44.5C 48.8509,52.9541 46.1842,59.7874 39.5,65C 37.6079,65.9734 35.6079,66.6401 33.5,67C 32.8742,67.7504 32.3742,68.5838 32,69.5C 22.5758,61.7451 20.2424,52.0784 25,40.5C 26.1667,38 28,36.1667 30.5,35C 18.3442,31.0542 13.0109,22.8875 14.5,10.5 Z M 33.5,27.5 C 33.5,28.8333 33.5,30.1667 33.5,31.5C 28.9327,31.479 25.0993,29.8123 22,26.5C 19.9128,23.3272 18.0795,19.9939 16.5,16.5C 16.8555,15.4777 17.5222,14.811 18.5,14.5C 26.5096,14.0795 32.843,17.4128 37.5,24.5C 36.7174,26.2882 35.3841,27.2882 33.5,27.5 Z M 36.5,17.5 C 37.8333,17.5 38.5,18.1667 38.5,19.5C 37.5,19.1667 36.8333,18.5 36.5,17.5 Z M 58.5,21.5 C 64.3278,26.0132 63.8278,29.3465 57,31.5C 49.1143,30.6544 46.9477,26.8211 50.5,20C 52.6303,18.4356 54.6303,18.4356 56.5,20C 50.7088,20.0068 49.0421,22.6734 51.5,28C 57.4938,29.8406 59.8271,27.6739 58.5,21.5 Z M 39.5,20.5 C 40.8366,21.3149 41.8366,22.4815 42.5,24C 40.5216,23.967 39.5216,22.8004 39.5,20.5 Z M 53.5,23.5 C 55.337,23.6395 55.6704,24.3061 54.5,25.5C 53.7025,25.0431 53.3691,24.3764 53.5,23.5 Z M 39.5,27.5 C 41.5273,27.3379 43.5273,27.5045 45.5,28C 46.6667,30.5 48.5,32.3333 51,33.5C 53.1667,40.6667 50.6667,43.1667 43.5,41C 36.1636,38.1155 34.8303,33.6155 39.5,27.5 Z M 29.5,40.5 C 30.3148,38.0924 31.9814,37.2591 34.5,38C 35.2567,39.5122 36.2567,40.8455 37.5,42C 40.2165,42.7824 42.5498,44.1157 44.5,46C 43.1667,48 43.1667,50 44.5,52C 43.8037,53.8928 42.9704,55.7262 42,57.5C 38.4623,59.6282 35.129,61.9616 32,64.5C 28.0104,63.2073 26.8437,60.7073 28.5,57C 25.0494,54.3991 24.7161,51.3991 27.5,48C 26.4321,45.0371 27.0988,42.5371 29.5,40.5 Z"/></g>
<g><path style="opacity:0.344" fill="#000000" d="M 18.5,14.5 C 20.5,14.5 21.5,15.5 21.5,17.5C 20.5,17.5 19.5,17.5 18.5,17.5C 18.5,16.5 18.5,15.5 18.5,14.5 Z"/></g>
<g><path style="opacity:0.344" fill="#000000" d="M 21.5,17.5 C 23.1788,17.2852 24.1788,17.9519 24.5,19.5C 22.4017,20.9143 21.4017,20.2476 21.5,17.5 Z"/></g>
<g><path style="opacity:0.343" fill="#000000" d="M 24.5,19.5 C 26.5,19.5 27.5,20.5 27.5,22.5C 26.5,22.5 25.5,22.5 24.5,22.5C 24.5,21.5 24.5,20.5 24.5,19.5 Z"/></g>
<g><path style="opacity:0.344" fill="#000000" d="M 27.5,22.5 C 30.9571,22.6672 31.2904,23.6672 28.5,25.5C 27.6143,24.675 27.281,23.675 27.5,22.5 Z"/></g>
<g><path style="opacity:0.393" fill="#000000" d="M 33.5,27.5 C 30.4524,27.506 29.9524,26.506 32,24.5C 33.0386,25.2438 33.5386,26.2438 33.5,27.5 Z"/></g>
<g><path style="opacity:0.394" fill="#000000" d="M 29.5,40.5 C 32.6741,40.9522 33.0075,41.9522 30.5,43.5C 29.6143,42.675 29.281,41.675 29.5,40.5 Z"/></g>
<g><path style="opacity:0.344" fill="#000000" d="M 35.5,45.5 C 33.4017,46.9143 32.4017,46.2476 32.5,43.5C 34.1788,43.2852 35.1788,43.9519 35.5,45.5 Z"/></g>
<g><path style="opacity:0.393" fill="#000000" d="M 35.5,45.5 C 38.5476,45.494 39.0476,46.494 37,48.5C 35.9614,47.7562 35.4614,46.7562 35.5,45.5 Z"/></g>
<g><path style="opacity:0.343" fill="#000000" d="M 39.5,46.5 C 43.31,47.7542 43.31,48.7542 39.5,49.5C 39.5,48.5 39.5,47.5 39.5,46.5 Z"/></g>
<g><path style="opacity:0.685" fill="#000000" d="M 28.5,49.5 C 30.337,49.6395 30.6704,50.3061 29.5,51.5C 28.7025,51.0431 28.3691,50.3764 28.5,49.5 Z"/></g>
<g><path style="opacity:0.344" fill="#000000" d="M 34.5,53.5 C 32.4017,54.9143 31.4017,54.2476 31.5,51.5C 33.1788,51.2852 34.1788,51.9519 34.5,53.5 Z"/></g>
<g><path style="opacity:0.344" fill="#000000" d="M 34.5,53.5 C 36.5983,52.0857 37.5983,52.7524 37.5,55.5C 35.8212,55.7148 34.8212,55.0481 34.5,53.5 Z"/></g>
<g><path style="opacity:0.393" fill="#000000" d="M 38.5,54.5 C 41.5476,54.494 42.0476,55.494 40,57.5C 38.9614,56.7562 38.4614,55.7562 38.5,54.5 Z"/></g>
<g><path style="opacity:0.393" fill="#000000" d="M 32.5,59.5 C 30.0139,60.7774 29.3472,60.1108 30.5,57.5C 31.5223,57.8555 32.189,58.5222 32.5,59.5 Z"/></g>
<g><path style="opacity:0.344" fill="#000000" d="M 32.5,59.5 C 34.5983,58.0857 35.5983,58.7524 35.5,61.5C 33.8212,61.7148 32.8212,61.0481 32.5,59.5 Z"/></g>
</svg>
