<?xml version="1.0" encoding="UTF-8"?>
<!DOCTYPE svg PUBLIC "-//W3C//DTD SVG 1.1//EN" "http://www.w3.org/Graphics/SVG/1.1/DTD/svg11.dtd">
<svg xmlns="http://www.w3.org/2000/svg" version="1.1" width="64px" height="64px" style="shape-rendering:geometricPrecision; text-rendering:geometricPrecision; image-rendering:optimizeQuality; fill-rule:evenodd; clip-rule:evenodd" xmlns:xlink="http://www.w3.org/1999/xlink">
<g><path style="opacity:0.971" fill="#fefffe" d="M 5.5,5.5 C 22.8333,5.5 40.1667,5.5 57.5,5.5C 57.5,22.8333 57.5,40.1667 57.5,57.5C 40.1667,57.5 22.8333,57.5 5.5,57.5C 5.5,40.1667 5.5,22.8333 5.5,5.5 Z M 8.5,7.5 C 24.0779,7.17562 39.5779,7.50895 55,8.5C 55.8238,24.0744 55.6571,39.5744 54.5,55C 38.9256,55.8238 23.4256,55.6571 8,54.5C 7.18348,38.7591 7.35014,23.0924 8.5,7.5 Z"/></g>
<g><path style="opacity:0.987" fill="#fefffe" d="M 9.5,9.5 C 21.5185,9.16769 33.5185,9.50103 45.5,10.5C 39.5,10.8333 33.5,11.1667 27.5,11.5C 21.1275,11.496 15.1275,10.8293 9.5,9.5 Z"/></g>
<g><path style="opacity:0.922" fill="#fefffe" d="M 47.5,9.5 C 49.604,9.2011 51.604,9.53443 53.5,10.5C 52.5,10.8333 51.5,11.1667 50.5,11.5C 48.9704,11.3601 47.9704,10.6935 47.5,9.5 Z"/></g>
<g><path style="opacity:0.707" fill="#fefffe" d="M 10.5,48.5 C 11.6491,48.7911 12.3158,49.6244 12.5,51C 12.1667,51.8333 11.8333,52.6667 11.5,53.5C 10.5481,51.9547 10.2148,50.288 10.5,48.5 Z"/></g>
<g><path style="opacity:0.707" fill="#fefffe" d="M 15.5,48.5 C 16.6491,48.7911 17.3158,49.6244 17.5,51C 17.1667,51.8333 16.8333,52.6667 16.5,53.5C 15.5481,51.9547 15.2148,50.288 15.5,48.5 Z"/></g>
<g><path style="opacity:0.707" fill="#fefffe" d="M 20.5,48.5 C 21.6491,48.7911 22.3158,49.6244 22.5,51C 22.1667,51.8333 21.8333,52.6667 21.5,53.5C 20.5481,51.9547 20.2148,50.288 20.5,48.5 Z"/></g>
<g><path style="opacity:0.707" fill="#fefffe" d="M 25.5,48.5 C 26.6491,48.7911 27.3158,49.6244 27.5,51C 27.1667,51.8333 26.8333,52.6667 26.5,53.5C 25.5481,51.9547 25.2148,50.288 25.5,48.5 Z"/></g>
<g><path style="opacity:0.707" fill="#fefffe" d="M 30.5,48.5 C 31.6491,48.7911 32.3158,49.6244 32.5,51C 32.1667,51.8333 31.8333,52.6667 31.5,53.5C 30.5481,51.9547 30.2148,50.288 30.5,48.5 Z"/></g>
<g><path style="opacity:0.707" fill="#fefffe" d="M 35.5,48.5 C 36.6491,48.7911 37.3158,49.6244 37.5,51C 37.1667,51.8333 36.8333,52.6667 36.5,53.5C 35.5481,51.9547 35.2148,50.288 35.5,48.5 Z"/></g>
<g><path style="opacity:0.707" fill="#fefffe" d="M 40.5,48.5 C 41.6491,48.7911 42.3158,49.6244 42.5,51C 42.1667,51.8333 41.8333,52.6667 41.5,53.5C 40.5481,51.9547 40.2148,50.288 40.5,48.5 Z"/></g>
<g><path style="opacity:0.707" fill="#fefffe" d="M 45.5,48.5 C 46.6491,48.7911 47.3158,49.6244 47.5,51C 47.1667,51.8333 46.8333,52.6667 46.5,53.5C 45.5481,51.9547 45.2148,50.288 45.5,48.5 Z"/></g>
<g><path style="opacity:0.707" fill="#fefffe" d="M 50.5,48.5 C 51.6491,48.7911 52.3158,49.6244 52.5,51C 52.1667,51.8333 51.8333,52.6667 51.5,53.5C 50.5481,51.9547 50.2148,50.288 50.5,48.5 Z"/></g>
</svg>
