<?xml version="1.0" encoding="UTF-8"?>
<!DOCTYPE svg PUBLIC "-//W3C//DTD SVG 1.1//EN" "http://www.w3.org/Graphics/SVG/1.1/DTD/svg11.dtd">
<svg xmlns="http://www.w3.org/2000/svg" version="1.1" width="64px" height="64px" style="shape-rendering:geometricPrecision; text-rendering:geometricPrecision; image-rendering:optimizeQuality; fill-rule:evenodd; clip-rule:evenodd" xmlns:xlink="http://www.w3.org/1999/xlink">
<g><path style="opacity:0.922" fill="#000000" d="M 22.5,7.5 C 28.5092,7.33385 34.5092,7.50051 40.5,8C 42.2134,9.37818 43.5467,11.0448 44.5,13C 46.1341,13.4935 47.8008,13.6602 49.5,13.5C 49.5,12.5 49.5,11.5 49.5,10.5C 51.5,10.5 53.5,10.5 55.5,10.5C 55.5,11.5 55.5,12.5 55.5,13.5C 57.5,13.5 59.5,13.5 61.5,13.5C 61.5,27.5 61.5,41.5 61.5,55.5C 41.5,55.5 21.5,55.5 1.5,55.5C 1.5,41.5 1.5,27.5 1.5,13.5C 3.5,13.5 5.5,13.5 7.5,13.5C 7.5,12.1667 7.5,10.8333 7.5,9.5C 10.8333,9.5 14.1667,9.5 17.5,9.5C 17.3433,10.8734 17.51,12.2068 18,13.5C 19.332,11.34 20.832,9.34004 22.5,7.5 Z M 25.5,9.5 C 29.5138,9.33449 33.5138,9.50115 37.5,10C 39.1757,11.1769 40.5091,12.6769 41.5,14.5C 47.3866,15.1864 53.2199,15.853 59,16.5C 59.8211,28.7425 59.6544,40.9092 58.5,53C 40.2597,53.8252 22.0931,53.6585 4,52.5C 3.33333,40.5 3.33333,28.5 4,16.5C 9.78009,15.853 15.6134,15.1864 21.5,14.5C 22.6125,12.5808 23.9458,10.9142 25.5,9.5 Z M 9.5,11.5 C 11.604,11.2011 13.604,11.5344 15.5,12.5C 14.5,12.8333 13.5,13.1667 12.5,13.5C 10.9704,13.3601 9.97041,12.6935 9.5,11.5 Z"/></g>
<g><path style="opacity:0.63" fill="#000000" d="M 25.5,17.5 C 37.3979,15.2703 44.5645,19.937 47,31.5C 48.0113,30.6634 49.1779,30.33 50.5,30.5C 49.0131,36.9955 45.8464,37.9955 41,33.5C 40.5172,32.552 40.3505,31.552 40.5,30.5C 41.5,30.5 42.5,30.5 43.5,30.5C 40.9075,22.1101 35.2408,18.9434 26.5,21C 24.4148,22.0414 22.7481,23.5414 21.5,25.5C 20.1667,26.8333 18.8333,26.8333 17.5,25.5C 19.3404,21.9311 22.0071,19.2644 25.5,17.5 Z"/></g>
<g><path style="opacity:0.628" fill="#000000" d="M 15.5,28.5 C 19.6935,28.3617 22.0268,30.3617 22.5,34.5C 21.5,34.5 20.5,34.5 19.5,34.5C 22.0925,42.8899 27.7592,46.0566 36.5,44C 39.3207,42.1776 41.8207,40.0109 44,37.5C 44.3333,37.8333 44.6667,38.1667 45,38.5C 44.4034,42.7776 41.9034,45.6109 37.5,47C 25.5935,49.7251 18.4268,45.2251 16,33.5C 14.9887,34.3366 13.8221,34.67 12.5,34.5C 12.615,32.0532 13.615,30.0532 15.5,28.5 Z"/></g>
<g><path style="opacity:0.884" fill="#000000" d="M 25.5,30.5 C 26.5862,30.62 27.2528,31.2867 27.5,32.5C 27.1667,33.1667 26.8333,33.8333 26.5,34.5C 25.5713,33.3112 25.238,31.9778 25.5,30.5 Z"/></g>
<g><path style="opacity:0.884" fill="#000000" d="M 30.5,30.5 C 31.5862,30.62 32.2528,31.2867 32.5,32.5C 32.1667,33.1667 31.8333,33.8333 31.5,34.5C 30.5713,33.3112 30.238,31.9778 30.5,30.5 Z"/></g>
<g><path style="opacity:0.884" fill="#000000" d="M 35.5,30.5 C 36.5862,30.62 37.2528,31.2867 37.5,32.5C 37.1667,33.1667 36.8333,33.8333 36.5,34.5C 35.5713,33.3112 35.238,31.9778 35.5,30.5 Z"/></g>
</svg>
