<?xml version="1.0" encoding="UTF-8"?>
<!DOCTYPE svg PUBLIC "-//W3C//DTD SVG 1.1//EN" "http://www.w3.org/Graphics/SVG/1.1/DTD/svg11.dtd">
<svg xmlns="http://www.w3.org/2000/svg" version="1.1" width="64px" height="64px" style="shape-rendering:geometricPrecision; text-rendering:geometricPrecision; image-rendering:optimizeQuality; fill-rule:evenodd; clip-rule:evenodd" xmlns:xlink="http://www.w3.org/1999/xlink">
<g><path style="opacity:0.69" fill="#fe0000" d="M 63.5,54.5 C 63.5,55.8333 63.5,57.1667 63.5,58.5C 42.1667,59.8333 20.8333,59.8333 -0.5,58.5C -0.5,57.1667 -0.5,55.8333 -0.5,54.5C 8.89232,39.3956 18.059,24.0622 27,8.5C 30,3.16667 33,3.16667 36,8.5C 44.941,24.0622 54.1077,39.3956 63.5,54.5 Z M 30.5,8.5 C 32.0744,8.93709 33.2411,9.93709 34,11.5C 42.7074,26.416 51.5408,41.2493 60.5,56C 60.1667,56.3333 59.8333,56.6667 59.5,57C 40.3503,57.9854 21.3503,57.6521 2.5,56C 12.4859,40.5228 21.8193,24.6894 30.5,8.5 Z"/></g>
<g><path style="opacity:0.619" fill="#fe0000" d="M 30.5,14.5 C 32.0174,14.5106 33.1841,15.1772 34,16.5C 41.0328,28.0368 47.8661,39.7035 54.5,51.5C 53.2138,53.5706 51.5471,53.9039 49.5,52.5C 50.3256,51.549 50.4922,50.549 50,49.5C 44.0841,39.3326 37.9174,29.3326 31.5,19.5C 25.1351,29.3677 18.9684,39.3677 13,49.5C 12.5078,50.549 12.6744,51.549 13.5,52.5C 11.9936,53.7472 10.4936,53.7472 9,52.5C 15.3396,39.501 22.5062,26.8344 30.5,14.5 Z"/></g>
<g><path style="opacity:0.721" fill="#fe0000" d="M 29.5,25.5 C 30.8333,25.5 32.1667,25.5 33.5,25.5C 33.5,30.8333 33.5,36.1667 33.5,41.5C 32.1779,41.67 31.0113,41.3366 30,40.5C 29.5007,35.5111 29.3341,30.5111 29.5,25.5 Z"/></g>
<g><path style="opacity:0.681" fill="#fe0000" d="M 29.5,43.5 C 31.6648,43.1159 33.3315,43.7826 34.5,45.5C 33.3315,47.2174 31.6648,47.8841 29.5,47.5C 29.5,46.1667 29.5,44.8333 29.5,43.5 Z"/></g>
<g><path style="opacity:0.883" fill="#fe0000" d="M 15.5,49.5 C 16.5862,49.62 17.2528,50.2867 17.5,51.5C 17.1667,52.1667 16.8333,52.8333 16.5,53.5C 15.5713,52.3112 15.238,50.9778 15.5,49.5 Z"/></g>
<g><path style="opacity:0.883" fill="#fe0000" d="M 20.5,49.5 C 21.5862,49.62 22.2528,50.2867 22.5,51.5C 22.1667,52.1667 21.8333,52.8333 21.5,53.5C 20.5713,52.3112 20.238,50.9778 20.5,49.5 Z"/></g>
<g><path style="opacity:0.883" fill="#fe0000" d="M 25.5,49.5 C 26.5862,49.62 27.2528,50.2867 27.5,51.5C 27.1667,52.1667 26.8333,52.8333 26.5,53.5C 25.5713,52.3112 25.238,50.9778 25.5,49.5 Z"/></g>
<g><path style="opacity:0.883" fill="#fe0000" d="M 30.5,49.5 C 31.5862,49.62 32.2528,50.2867 32.5,51.5C 32.1667,52.1667 31.8333,52.8333 31.5,53.5C 30.5713,52.3112 30.238,50.9778 30.5,49.5 Z"/></g>
<g><path style="opacity:0.883" fill="#fe0000" d="M 35.5,49.5 C 36.5862,49.62 37.2528,50.2867 37.5,51.5C 37.1667,52.1667 36.8333,52.8333 36.5,53.5C 35.5713,52.3112 35.238,50.9778 35.5,49.5 Z"/></g>
<g><path style="opacity:0.883" fill="#fe0000" d="M 40.5,49.5 C 41.5862,49.62 42.2528,50.2867 42.5,51.5C 42.1667,52.1667 41.8333,52.8333 41.5,53.5C 40.5713,52.3112 40.238,50.9778 40.5,49.5 Z"/></g>
<g><path style="opacity:0.883" fill="#fe0000" d="M 45.5,49.5 C 46.5862,49.62 47.2528,50.2867 47.5,51.5C 47.1667,52.1667 46.8333,52.8333 46.5,53.5C 45.5713,52.3112 45.238,50.9778 45.5,49.5 Z"/></g>
</svg>
